<svg width="363" height="234" viewBox="0 0 363 234" fill="none" xmlns="http://www.w3.org/2000/svg">
<path d="M5.88 14.24C9.48 14.24 10.8 12.26 10.8 10.32C10.8 5.34 2.9 7.06 2.9 4.06C2.9 2.8 4.04 1.94 5.64 1.94C7.1 1.94 8.5 2.44 9.5 3.54L10.5 2.32C9.38 1.14 7.8 0.459999 5.76 0.459999C3.14 0.459999 1.18 1.96 1.18 4.16C1.18 8.92 9.08 7.02 9.08 10.46C9.08 11.48 8.32 12.76 5.94 12.76C4.06 12.76 2.62 11.84 1.74 10.86L0.76 12.12C1.86 13.36 3.56 14.24 5.88 14.24ZM17.4788 14.24C19.2388 14.24 20.2788 13.52 21.0188 12.56L20.0188 11.64C19.3788 12.5 18.5588 12.9 17.5588 12.9C15.4988 12.9 14.2188 11.3 14.2188 9.16C14.2188 7.02 15.4988 5.44 17.5588 5.44C18.5588 5.44 19.3788 5.82 20.0188 6.7L21.0188 5.78C20.2788 4.82 19.2388 4.1 17.4788 4.1C14.5988 4.1 12.6588 6.3 12.6588 9.16C12.6588 12.04 14.5988 14.24 17.4788 14.24ZM31.1611 14V7.18C31.1611 5.08 30.1011 4.1 28.0811 4.1C26.6211 4.1 25.3011 4.94 24.6211 5.74V0.659999H23.1211V14H24.6211V6.94C25.2011 6.16 26.3211 5.44 27.4811 5.44C28.7811 5.44 29.6611 5.94 29.6611 7.64V14H31.1611ZM38.5163 14.24C40.0963 14.24 41.3963 13.72 42.3563 12.76L41.6363 11.78C40.8763 12.56 39.7563 13 38.6563 13C36.5763 13 35.2962 11.48 35.1763 9.66H42.9963V9.28C42.9963 6.38 41.2763 4.1 38.3563 4.1C35.5962 4.1 33.5963 6.36 33.5963 9.16C33.5963 12.18 35.6563 14.24 38.5163 14.24ZM41.5163 8.56H35.1763C35.2563 7.08 36.2763 5.34 38.3363 5.34C40.5363 5.34 41.4963 7.12 41.5163 8.56ZM53.9258 14V0.659999H52.4258V5.8C51.6458 4.74 50.4658 4.1 49.1658 4.1C46.6258 4.1 44.8658 6.1 44.8658 9.18C44.8658 12.32 46.6458 14.24 49.1658 14.24C50.5258 14.24 51.7058 13.54 52.4258 12.56V14H53.9258ZM49.5258 12.9C47.5858 12.9 46.4258 11.32 46.4258 9.18C46.4258 7.04 47.5858 5.44 49.5258 5.44C50.7258 5.44 51.8858 6.16 52.4258 7V11.38C51.8858 12.22 50.7258 12.9 49.5258 12.9ZM64.9497 14V4.34H63.4497V11.44C62.8897 12.22 61.7697 12.9 60.5897 12.9C59.2897 12.9 58.4297 12.4 58.4297 10.7V4.34H56.9297V11.16C56.9297 13.26 57.9897 14.24 60.0097 14.24C61.4497 14.24 62.7097 13.48 63.4497 12.64V14H64.9497ZM69.4453 14V0.659999H67.9453V14H69.4453ZM76.7975 14.24C78.3775 14.24 79.6775 13.72 80.6375 12.76L79.9175 11.78C79.1575 12.56 78.0375 13 76.9375 13C74.8575 13 73.5775 11.48 73.4575 9.66H81.2775V9.28C81.2775 6.38 79.5575 4.1 76.6375 4.1C73.8775 4.1 71.8775 6.36 71.8775 9.16C71.8775 12.18 73.9375 14.24 76.7975 14.24ZM79.7975 8.56H73.4575C73.5375 7.08 74.5575 5.34 76.6175 5.34C78.8175 5.34 79.7775 7.12 79.7975 8.56ZM96.4033 14V7.36C96.4033 5.02 94.7033 4.1 92.6633 4.1C91.0833 4.1 89.8433 4.62 88.8033 5.7L89.5033 6.74C90.3633 5.82 91.3033 5.4 92.4633 5.4C93.8633 5.4 94.9033 6.14 94.9033 7.44V9.18C94.1233 8.28 93.0233 7.86 91.7033 7.86C90.0633 7.86 88.3233 8.88 88.3233 11.04C88.3233 13.14 90.0633 14.24 91.7033 14.24C93.0033 14.24 94.1033 13.78 94.9033 12.9V14H96.4033ZM92.2433 13.16C90.8433 13.16 89.8633 12.28 89.8633 11.06C89.8633 9.82 90.8433 8.94 92.2433 8.94C93.3033 8.94 94.3233 9.34 94.9033 10.14V11.96C94.3233 12.76 93.3033 13.16 92.2433 13.16ZM107.43 14V7.22C107.43 5.12 106.37 4.1 104.35 4.1C102.91 4.1 101.59 4.94 100.91 5.74V4.34H99.4102V14H100.91V6.94C101.47 6.16 102.59 5.44 103.77 5.44C105.07 5.44 105.93 5.98 105.93 7.68V14H107.43ZM123.122 14V7.36C123.122 5.02 121.422 4.1 119.382 4.1C117.802 4.1 116.562 4.62 115.522 5.7L116.222 6.74C117.082 5.82 118.022 5.4 119.182 5.4C120.582 5.4 121.622 6.14 121.622 7.44V9.18C120.842 8.28 119.742 7.86 118.422 7.86C116.782 7.86 115.042 8.88 115.042 11.04C115.042 13.14 116.782 14.24 118.422 14.24C119.722 14.24 120.822 13.78 121.622 12.9V14H123.122ZM118.962 13.16C117.562 13.16 116.582 12.28 116.582 11.06C116.582 9.82 117.562 8.94 118.962 8.94C120.022 8.94 121.042 9.34 121.622 10.14V11.96C121.042 12.76 120.022 13.16 118.962 13.16ZM130.889 14.24C133.429 14.24 135.189 12.28 135.189 9.16C135.189 6.02 133.429 4.1 130.889 4.1C129.529 4.1 128.329 4.8 127.629 5.78V4.34H126.129V17.68H127.629V12.54C128.409 13.62 129.569 14.24 130.889 14.24ZM130.509 12.9C129.329 12.9 128.149 12.18 127.629 11.34V6.98C128.149 6.14 129.329 5.44 130.509 5.44C132.449 5.44 133.609 7.02 133.609 9.16C133.609 11.3 132.449 12.9 130.509 12.9ZM142.334 14.24C144.874 14.24 146.634 12.28 146.634 9.16C146.634 6.02 144.874 4.1 142.334 4.1C140.974 4.1 139.774 4.8 139.074 5.78V4.34H137.574V17.68H139.074V12.54C139.854 13.62 141.014 14.24 142.334 14.24ZM141.954 12.9C140.774 12.9 139.594 12.18 139.074 11.34V6.98C139.594 6.14 140.774 5.44 141.954 5.44C143.894 5.44 145.054 7.02 145.054 9.16C145.054 11.3 143.894 12.9 141.954 12.9ZM153.24 14.24C156.18 14.24 158.02 11.96 158.02 9.16C158.02 6.36 156.18 4.1 153.24 4.1C150.3 4.1 148.46 6.36 148.46 9.16C148.46 11.96 150.3 14.24 153.24 14.24ZM153.24 12.9C151.18 12.9 150.02 11.14 150.02 9.16C150.02 7.2 151.18 5.44 153.24 5.44C155.3 5.44 156.44 7.2 156.44 9.16C156.44 11.14 155.3 12.9 153.24 12.9ZM161.205 2.96C161.765 2.96 162.225 2.52 162.225 1.96C162.225 1.4 161.765 0.939999 161.205 0.939999C160.665 0.939999 160.205 1.4 160.205 1.96C160.205 2.52 160.665 2.96 161.205 2.96ZM161.965 14V4.34H160.465V14H161.965ZM172.977 14V7.22C172.977 5.12 171.917 4.1 169.897 4.1C168.457 4.1 167.137 4.94 166.457 5.74V4.34H164.957V14H166.457V6.94C167.017 6.16 168.137 5.44 169.317 5.44C170.617 5.44 171.477 5.98 171.477 7.68V14H172.977ZM178.413 14.24C179.293 14.24 179.833 13.98 180.213 13.62L179.773 12.5C179.573 12.72 179.173 12.9 178.753 12.9C178.093 12.9 177.773 12.38 177.773 11.66V5.66H179.733V4.34H177.773V1.7H176.273V4.34H174.673V5.66H176.273V11.98C176.273 13.42 176.993 14.24 178.413 14.24ZM195.012 14V7.02C195.012 5.08 194.072 4.1 192.312 4.1C190.912 4.1 189.612 5.02 189.072 5.9C188.792 4.9 187.952 4.1 186.472 4.1C185.052 4.1 183.752 5.12 183.352 5.74V4.34H181.852V14H183.352V6.94C183.872 6.16 184.912 5.44 185.892 5.44C187.152 5.44 187.672 6.22 187.672 7.44V14H189.172V6.92C189.672 6.16 190.732 5.44 191.732 5.44C192.972 5.44 193.512 6.22 193.512 7.44V14H195.012ZM202.364 14.24C203.944 14.24 205.244 13.72 206.204 12.76L205.484 11.78C204.724 12.56 203.604 13 202.504 13C200.424 13 199.144 11.48 199.024 9.66H206.844V9.28C206.844 6.38 205.124 4.1 202.204 4.1C199.444 4.1 197.444 6.36 197.444 9.16C197.444 12.18 199.504 14.24 202.364 14.24ZM205.364 8.56H199.024C199.104 7.08 200.124 5.34 202.184 5.34C204.384 5.34 205.344 7.12 205.364 8.56ZM217.293 14V7.22C217.293 5.12 216.233 4.1 214.213 4.1C212.773 4.1 211.453 4.94 210.773 5.74V4.34H209.273V14H210.773V6.94C211.333 6.16 212.453 5.44 213.633 5.44C214.933 5.44 215.793 5.98 215.793 7.68V14H217.293ZM222.729 14.24C223.609 14.24 224.149 13.98 224.529 13.62L224.089 12.5C223.889 12.72 223.489 12.9 223.069 12.9C222.409 12.9 222.089 12.38 222.089 11.66V5.66H224.049V4.34H222.089V1.7H220.589V4.34H218.989V5.66H220.589V11.98C220.589 13.42 221.309 14.24 222.729 14.24ZM7.88 68.26C10.06 68.26 11.88 67.34 13.12 65.96V61.14H6.88V62.62H11.46V65.34C10.8 66 9.48 66.78 7.88 66.78C4.96 66.78 2.74 64.5 2.74 61.34C2.74 58.16 4.96 55.92 7.88 55.92C9.48 55.92 10.9 56.68 11.74 57.76L13.06 56.94C11.88 55.48 10.24 54.44 7.88 54.44C4.08 54.44 1.02 57.2 1.02 61.34C1.02 65.48 4.08 68.26 7.88 68.26ZM16.4978 56.96C17.0578 56.96 17.5178 56.52 17.5178 55.96C17.5178 55.4 17.0578 54.94 16.4978 54.94C15.9578 54.94 15.4978 55.4 15.4978 55.96C15.4978 56.52 15.9578 56.96 16.4978 56.96ZM17.2578 68V58.34H15.7578V68H17.2578ZM24.47 68L28.49 58.34H26.85L23.65 66.26L20.43 58.34H18.81L22.83 68H24.47ZM34.4147 68.24C35.9947 68.24 37.2947 67.72 38.2547 66.76L37.5347 65.78C36.7747 66.56 35.6547 67 34.5547 67C32.4747 67 31.1947 65.48 31.0747 63.66H38.8947V63.28C38.8947 60.38 37.1747 58.1 34.2547 58.1C31.4947 58.1 29.4947 60.36 29.4947 63.16C29.4947 66.18 31.5547 68.24 34.4147 68.24ZM37.4147 62.56H31.0747C31.1547 61.08 32.1747 59.34 34.2347 59.34C36.4347 59.34 37.3947 61.12 37.4147 62.56ZM54.5005 68V58.34H53.0005V65.44C52.4405 66.22 51.3205 66.9 50.1405 66.9C48.8405 66.9 47.9805 66.4 47.9805 64.7V58.34H46.4805V65.16C46.4805 67.26 47.5405 68.24 49.5605 68.24C51.0005 68.24 52.2605 67.48 53.0005 66.64V68H54.5005ZM62.2561 68.24C64.7961 68.24 66.5561 66.28 66.5561 63.16C66.5561 60.02 64.7961 58.1 62.2561 58.1C60.8961 58.1 59.6961 58.8 58.9961 59.78V58.34H57.4961V71.68H58.9961V66.54C59.7761 67.62 60.9361 68.24 62.2561 68.24ZM61.8761 66.9C60.6961 66.9 59.5161 66.18 58.9961 65.34V60.98C59.5161 60.14 60.6961 59.44 61.8761 59.44C63.8161 59.44 64.9761 61.02 64.9761 63.16C64.9761 65.3 63.8161 66.9 61.8761 66.9ZM81.6377 68V61.36C81.6377 59.02 79.9377 58.1 77.8977 58.1C76.3177 58.1 75.0777 58.62 74.0377 59.7L74.7377 60.74C75.5977 59.82 76.5377 59.4 77.6977 59.4C79.0977 59.4 80.1377 60.14 80.1377 61.44V63.18C79.3577 62.28 78.2577 61.86 76.9377 61.86C75.2977 61.86 73.5577 62.88 73.5577 65.04C73.5577 67.14 75.2977 68.24 76.9377 68.24C78.2377 68.24 79.3377 67.78 80.1377 66.9V68H81.6377ZM77.4777 67.16C76.0777 67.16 75.0977 66.28 75.0977 65.06C75.0977 63.82 76.0777 62.94 77.4777 62.94C78.5377 62.94 79.5577 63.34 80.1377 64.14V65.96C79.5577 66.76 78.5377 67.16 77.4777 67.16ZM98.3008 68V54.66H96.8008V59.8C96.0208 58.74 94.8408 58.1 93.5408 58.1C91.0008 58.1 89.2408 60.1 89.2408 63.18C89.2408 66.32 91.0208 68.24 93.5408 68.24C94.9008 68.24 96.0808 67.54 96.8008 66.56V68H98.3008ZM93.9008 66.9C91.9608 66.9 90.8008 65.32 90.8008 63.18C90.8008 61.04 91.9608 59.44 93.9008 59.44C95.1008 59.44 96.2608 60.16 96.8008 61V65.38C96.2608 66.22 95.1008 66.9 93.9008 66.9ZM108.845 68V61.36C108.845 59.02 107.145 58.1 105.105 58.1C103.525 58.1 102.285 58.62 101.245 59.7L101.945 60.74C102.805 59.82 103.745 59.4 104.905 59.4C106.305 59.4 107.345 60.14 107.345 61.44V63.18C106.565 62.28 105.465 61.86 104.145 61.86C102.505 61.86 100.765 62.88 100.765 65.04C100.765 67.14 102.505 68.24 104.145 68.24C105.445 68.24 106.545 67.78 107.345 66.9V68H108.845ZM104.685 67.16C103.285 67.16 102.305 66.28 102.305 65.06C102.305 63.82 103.285 62.94 104.685 62.94C105.745 62.94 106.765 63.34 107.345 64.14V65.96C106.765 66.76 105.745 67.16 104.685 67.16ZM111.312 71.78C111.592 71.86 112.092 71.92 112.412 71.92C113.692 71.9 114.672 71.36 115.252 69.96L120.092 58.34H118.452L115.252 66.26L112.032 58.34H110.412L114.452 68.1L113.812 69.56C113.472 70.36 113.032 70.58 112.372 70.58C112.132 70.58 111.772 70.52 111.552 70.42L111.312 71.78ZM131.033 68.24C133.973 68.24 135.813 65.96 135.813 63.16C135.813 60.36 133.973 58.1 131.033 58.1C128.093 58.1 126.253 60.36 126.253 63.16C126.253 65.96 128.093 68.24 131.033 68.24ZM131.033 66.9C128.973 66.9 127.812 65.14 127.812 63.16C127.812 61.2 128.973 59.44 131.033 59.44C133.093 59.44 134.233 61.2 134.233 63.16C134.233 65.14 133.093 66.9 131.033 66.9ZM140.178 68V59.66H142.138V58.34H140.178V57.6C140.178 56.38 140.718 55.7 141.698 55.7C142.198 55.7 142.578 55.9 142.898 56.18L143.518 55.2C142.918 54.64 142.238 54.46 141.478 54.46C139.758 54.46 138.678 55.62 138.678 57.6V58.34H137.078V59.66H138.678V68H140.178ZM158.938 68L162.018 58.34H160.458L158.098 66.04L155.558 58.34H154.278L151.738 66.04L149.378 58.34H147.818L150.898 68H152.398L154.918 60.24L157.438 68H158.938ZM167.986 68.24C170.926 68.24 172.766 65.96 172.766 63.16C172.766 60.36 170.926 58.1 167.986 58.1C165.046 58.1 163.206 60.36 163.206 63.16C163.206 65.96 165.046 68.24 167.986 68.24ZM167.986 66.9C165.926 66.9 164.766 65.14 164.766 63.16C164.766 61.2 165.926 59.44 167.986 59.44C170.046 59.44 171.186 61.2 171.186 63.16C171.186 65.14 170.046 66.9 167.986 66.9ZM176.711 68V61.16C177.151 60.38 178.411 59.62 179.331 59.62C179.571 59.62 179.751 59.64 179.931 59.68V58.14C178.611 58.14 177.491 58.88 176.711 59.9V58.34H175.211V68H176.711ZM190.312 68L186.013 62.72L190.293 58.34H188.393L183.313 63.48V54.66H181.813V68H183.313V65.24L184.913 63.66L188.393 68H190.312ZM12.98 122L7.6 108.66H5.54L0.18 122H2.08L3.26 119.04H9.9L11.08 122H12.98ZM9.4 117.56H3.74L6.58 110.38L9.4 117.56ZM17.7241 122.24C20.2241 122.24 21.5241 120.94 21.5241 119.32C21.5241 115.56 15.5441 116.96 15.5441 114.84C15.5441 113.98 16.3641 113.32 17.6841 113.32C18.9241 113.32 19.9841 113.84 20.5641 114.54L21.2641 113.5C20.4841 112.72 19.3241 112.1 17.6841 112.1C15.3841 112.1 14.0841 113.38 14.0841 114.88C14.0841 118.46 20.0641 117.02 20.0641 119.36C20.0641 120.32 19.2641 121.02 17.7841 121.02C16.4641 121.02 15.2441 120.38 14.6041 119.64L13.8241 120.72C14.8041 121.76 16.1441 122.24 17.7241 122.24ZM32.4609 122L28.1609 116.72L32.4409 112.34H30.5409L25.4609 117.48V108.66H23.9609V122H25.4609V119.24L27.0609 117.66L30.5409 122H32.4609ZM41.3106 122V113.66H43.2706V112.34H41.3106V111.6C41.3106 110.38 41.8506 109.7 42.8306 109.7C43.3306 109.7 43.7106 109.9 44.0306 110.18L44.6506 109.2C44.0506 108.64 43.3706 108.46 42.6106 108.46C40.8906 108.46 39.8106 109.62 39.8106 111.6V112.34H38.2106V113.66H39.8106V122H41.3106ZM49.2747 122.24C52.2147 122.24 54.0547 119.96 54.0547 117.16C54.0547 114.36 52.2147 112.1 49.2747 112.1C46.3347 112.1 44.4947 114.36 44.4947 117.16C44.4947 119.96 46.3347 122.24 49.2747 122.24ZM49.2747 120.9C47.2147 120.9 46.0547 119.14 46.0547 117.16C46.0547 115.2 47.2147 113.44 49.2747 113.44C51.3347 113.44 52.4747 115.2 52.4747 117.16C52.4747 119.14 51.3347 120.9 49.2747 120.9ZM58 122V115.16C58.44 114.38 59.7 113.62 60.62 113.62C60.86 113.62 61.04 113.64 61.22 113.68V112.14C59.9 112.14 58.78 112.88 58 113.9V112.34H56.5V122H58ZM81.4178 122V115.02C81.4178 113.08 80.4778 112.1 78.7178 112.1C77.3178 112.1 76.0178 113.02 75.4778 113.9C75.1978 112.9 74.3578 112.1 72.8778 112.1C71.4578 112.1 70.1578 113.12 69.7578 113.74V112.34H68.2578V122H69.7578V114.94C70.2778 114.16 71.3178 113.44 72.2978 113.44C73.5578 113.44 74.0778 114.22 74.0778 115.44V122H75.5778V114.92C76.0778 114.16 77.1378 113.44 78.1378 113.44C79.3778 113.44 79.9178 114.22 79.9178 115.44V122H81.4178ZM88.7702 122.24C90.3502 122.24 91.6502 121.72 92.6102 120.76L91.8902 119.78C91.1302 120.56 90.0102 121 88.9102 121C86.8302 121 85.5502 119.48 85.4302 117.66H93.2502V117.28C93.2502 114.38 91.5302 112.1 88.6102 112.1C85.8502 112.1 83.8502 114.36 83.8502 117.16C83.8502 120.18 85.9102 122.24 88.7702 122.24ZM91.7702 116.56H85.4302C85.5102 115.08 86.5302 113.34 88.5902 113.34C90.7902 113.34 91.7502 115.12 91.7702 116.56ZM104.18 122V108.66H102.68V113.8C101.9 112.74 100.72 112.1 99.4197 112.1C96.8797 112.1 95.1197 114.1 95.1197 117.18C95.1197 120.32 96.8997 122.24 99.4197 122.24C100.78 122.24 101.96 121.54 102.68 120.56V122H104.18ZM99.7797 120.9C97.8397 120.9 96.6797 119.32 96.6797 117.18C96.6797 115.04 97.8397 113.44 99.7797 113.44C100.98 113.44 102.14 114.16 102.68 115V119.38C102.14 120.22 100.98 120.9 99.7797 120.9ZM107.924 110.96C108.484 110.96 108.944 110.52 108.944 109.96C108.944 109.4 108.484 108.94 107.924 108.94C107.384 108.94 106.924 109.4 106.924 109.96C106.924 110.52 107.384 110.96 107.924 110.96ZM108.684 122V112.34H107.184V122H108.684ZM115.936 122.24C117.696 122.24 118.736 121.52 119.476 120.56L118.476 119.64C117.836 120.5 117.016 120.9 116.016 120.9C113.956 120.9 112.676 119.3 112.676 117.16C112.676 115.02 113.956 113.44 116.016 113.44C117.016 113.44 117.836 113.82 118.476 114.7L119.476 113.78C118.736 112.82 117.696 112.1 115.936 112.1C113.056 112.1 111.116 114.3 111.116 117.16C111.116 120.04 113.056 122.24 115.936 122.24ZM129.118 122V115.36C129.118 113.02 127.418 112.1 125.378 112.1C123.798 112.1 122.558 112.62 121.518 113.7L122.218 114.74C123.078 113.82 124.018 113.4 125.178 113.4C126.578 113.4 127.618 114.14 127.618 115.44V117.18C126.838 116.28 125.738 115.86 124.418 115.86C122.778 115.86 121.038 116.88 121.038 119.04C121.038 121.14 122.778 122.24 124.418 122.24C125.718 122.24 126.818 121.78 127.618 120.9V122H129.118ZM124.958 121.16C123.558 121.16 122.578 120.28 122.578 119.06C122.578 117.82 123.558 116.94 124.958 116.94C126.018 116.94 127.038 117.34 127.618 118.14V119.96C127.038 120.76 126.018 121.16 124.958 121.16ZM133.625 122V108.66H132.125V122H133.625ZM143.273 122V115.16C143.713 114.38 144.973 113.62 145.893 113.62C146.133 113.62 146.313 113.64 146.493 113.68V112.14C145.173 112.14 144.053 112.88 143.273 113.9V112.34H141.773V122H143.273ZM152.735 122.24C154.315 122.24 155.615 121.72 156.575 120.76L155.855 119.78C155.095 120.56 153.975 121 152.875 121C150.795 121 149.515 119.48 149.395 117.66H157.215V117.28C157.215 114.38 155.495 112.1 152.575 112.1C149.815 112.1 147.815 114.36 147.815 117.16C147.815 120.18 149.875 122.24 152.735 122.24ZM155.735 116.56H149.395C149.475 115.08 150.495 113.34 152.555 113.34C154.755 113.34 155.715 115.12 155.735 116.56ZM163.905 122.24C165.665 122.24 166.705 121.52 167.445 120.56L166.445 119.64C165.805 120.5 164.985 120.9 163.985 120.9C161.925 120.9 160.645 119.3 160.645 117.16C160.645 115.02 161.925 113.44 163.985 113.44C164.985 113.44 165.805 113.82 166.445 114.7L167.445 113.78C166.705 112.82 165.665 112.1 163.905 112.1C161.025 112.1 159.085 114.3 159.085 117.16C159.085 120.04 161.025 122.24 163.905 122.24ZM173.767 122.24C176.707 122.24 178.547 119.96 178.547 117.16C178.547 114.36 176.707 112.1 173.767 112.1C170.827 112.1 168.987 114.36 168.987 117.16C168.987 119.96 170.827 122.24 173.767 122.24ZM173.767 120.9C171.707 120.9 170.547 119.14 170.547 117.16C170.547 115.2 171.707 113.44 173.767 113.44C175.827 113.44 176.967 115.2 176.967 117.16C176.967 119.14 175.827 120.9 173.767 120.9ZM182.492 122V115.16C182.932 114.38 184.192 113.62 185.112 113.62C185.352 113.62 185.532 113.64 185.712 113.68V112.14C184.392 112.14 183.272 112.88 182.492 113.9V112.34H180.992V122H182.492ZM196.094 122V108.66H194.594V113.8C193.814 112.74 192.634 112.1 191.334 112.1C188.794 112.1 187.034 114.1 187.034 117.18C187.034 120.32 188.814 122.24 191.334 122.24C192.694 122.24 193.874 121.54 194.594 120.56V122H196.094ZM191.694 120.9C189.754 120.9 188.594 119.32 188.594 117.18C188.594 115.04 189.754 113.44 191.694 113.44C192.894 113.44 194.054 114.16 194.594 115V119.38C194.054 120.22 192.894 120.9 191.694 120.9ZM202.158 122.24C204.658 122.24 205.958 120.94 205.958 119.32C205.958 115.56 199.978 116.96 199.978 114.84C199.978 113.98 200.798 113.32 202.118 113.32C203.358 113.32 204.418 113.84 204.998 114.54L205.698 113.5C204.918 112.72 203.758 112.1 202.118 112.1C199.818 112.1 198.518 113.38 198.518 114.88C198.518 118.46 204.498 117.02 204.498 119.36C204.498 120.32 203.698 121.02 202.218 121.02C200.898 121.02 199.678 120.38 199.038 119.64L198.258 120.72C199.238 121.76 200.578 122.24 202.158 122.24ZM209.195 122.2C209.795 122.2 210.295 121.7 210.295 121.1C210.295 120.5 209.795 120 209.195 120C208.595 120 208.095 120.5 208.095 121.1C208.095 121.7 208.595 122.2 209.195 122.2ZM223.76 122V116.36L229 108.66H227.06L222.92 114.86L218.78 108.66H216.84L222.1 116.36V122H223.76ZM232.361 122.24C235.301 122.24 237.141 119.96 237.141 117.16C237.141 114.36 235.301 112.1 232.361 112.1C229.421 112.1 227.581 114.36 227.581 117.16C227.581 119.96 229.421 122.24 232.361 122.24ZM232.361 120.9C230.301 120.9 229.141 119.14 229.141 117.16C229.141 115.2 230.301 113.44 232.361 113.44C234.421 113.44 235.561 115.2 235.561 117.16C235.561 119.14 234.421 120.9 232.361 120.9ZM247.606 122V112.34H246.106V119.44C245.546 120.22 244.426 120.9 243.246 120.9C241.946 120.9 241.086 120.4 241.086 118.7V112.34H239.586V119.16C239.586 121.26 240.646 122.24 242.666 122.24C244.106 122.24 245.366 121.48 246.106 120.64V122H247.606ZM252.102 122V115.16C252.542 114.38 253.802 113.62 254.722 113.62C254.962 113.62 255.142 113.64 255.322 113.68V112.14C254.002 112.14 252.882 112.88 252.102 113.9V112.34H250.602V122H252.102ZM263.859 122V115.16C264.299 114.38 265.559 113.62 266.479 113.62C266.719 113.62 266.899 113.64 267.079 113.68V112.14C265.759 112.14 264.639 112.88 263.859 113.9V112.34H262.359V122H263.859ZM273.321 122.24C274.901 122.24 276.201 121.72 277.161 120.76L276.441 119.78C275.681 120.56 274.561 121 273.461 121C271.381 121 270.101 119.48 269.981 117.66H277.801V117.28C277.801 114.38 276.081 112.1 273.161 112.1C270.401 112.1 268.401 114.36 268.401 117.16C268.401 120.18 270.461 122.24 273.321 122.24ZM276.321 116.56H269.981C270.061 115.08 271.081 113.34 273.141 113.34C275.341 113.34 276.301 115.12 276.321 116.56ZM284.49 122.24C286.25 122.24 287.29 121.52 288.03 120.56L287.03 119.64C286.39 120.5 285.57 120.9 284.57 120.9C282.51 120.9 281.23 119.3 281.23 117.16C281.23 115.02 282.51 113.44 284.57 113.44C285.57 113.44 286.39 113.82 287.03 114.7L288.03 113.78C287.29 112.82 286.25 112.1 284.49 112.1C281.61 112.1 279.67 114.3 279.67 117.16C279.67 120.04 281.61 122.24 284.49 122.24ZM294.353 122.24C297.293 122.24 299.133 119.96 299.133 117.16C299.133 114.36 297.293 112.1 294.353 112.1C291.413 112.1 289.573 114.36 289.573 117.16C289.573 119.96 291.413 122.24 294.353 122.24ZM294.353 120.9C292.293 120.9 291.133 119.14 291.133 117.16C291.133 115.2 292.293 113.44 294.353 113.44C296.413 113.44 297.553 115.2 297.553 117.16C297.553 119.14 296.413 120.9 294.353 120.9ZM303.078 122V115.16C303.518 114.38 304.778 113.62 305.698 113.62C305.938 113.62 306.118 113.64 306.298 113.68V112.14C304.978 112.14 303.858 112.88 303.078 113.9V112.34H301.578V122H303.078ZM316.68 122V108.66H315.18V113.8C314.4 112.74 313.22 112.1 311.92 112.1C309.38 112.1 307.62 114.1 307.62 117.18C307.62 120.32 309.4 122.24 311.92 122.24C313.28 122.24 314.46 121.54 315.18 120.56V122H316.68ZM312.28 120.9C310.34 120.9 309.18 119.32 309.18 117.18C309.18 115.04 310.34 113.44 312.28 113.44C313.48 113.44 314.64 114.16 315.18 115V119.38C314.64 120.22 313.48 120.9 312.28 120.9ZM322.744 122.24C325.244 122.24 326.544 120.94 326.544 119.32C326.544 115.56 320.564 116.96 320.564 114.84C320.564 113.98 321.384 113.32 322.704 113.32C323.944 113.32 325.004 113.84 325.584 114.54L326.284 113.5C325.504 112.72 324.344 112.1 322.704 112.1C320.404 112.1 319.104 113.38 319.104 114.88C319.104 118.46 325.084 117.02 325.084 119.36C325.084 120.32 324.284 121.02 322.804 121.02C321.484 121.02 320.264 120.38 319.624 119.64L318.844 120.72C319.824 121.76 321.164 122.24 322.744 122.24ZM337.197 122.24C339.697 122.24 340.997 120.94 340.997 119.32C340.997 115.56 335.017 116.96 335.017 114.84C335.017 113.98 335.837 113.32 337.157 113.32C338.397 113.32 339.457 113.84 340.037 114.54L340.737 113.5C339.957 112.72 338.797 112.1 337.157 112.1C334.857 112.1 333.557 113.38 333.557 114.88C333.557 118.46 339.537 117.02 339.537 119.36C339.537 120.32 338.737 121.02 337.257 121.02C335.937 121.02 334.717 120.38 334.077 119.64L333.297 120.72C334.277 121.76 335.617 122.24 337.197 122.24ZM350.974 122V115.36C350.974 113.02 349.274 112.1 347.234 112.1C345.654 112.1 344.414 112.62 343.374 113.7L344.074 114.74C344.934 113.82 345.874 113.4 347.034 113.4C348.434 113.4 349.474 114.14 349.474 115.44V117.18C348.694 116.28 347.594 115.86 346.274 115.86C344.634 115.86 342.894 116.88 342.894 119.04C342.894 121.14 344.634 122.24 346.274 122.24C347.574 122.24 348.674 121.78 349.474 120.9V122H350.974ZM346.814 121.16C345.414 121.16 344.434 120.28 344.434 119.06C344.434 117.82 345.414 116.94 346.814 116.94C347.874 116.94 348.894 117.34 349.474 118.14V119.96C348.894 120.76 347.874 121.16 346.814 121.16ZM353.44 125.78C353.72 125.86 354.22 125.92 354.54 125.92C355.82 125.9 356.8 125.36 357.38 123.96L362.22 112.34H360.58L357.38 120.26L354.16 112.34H352.54L356.58 122.1L355.94 123.56C355.6 124.36 355.16 124.58 354.5 124.58C354.26 124.58 353.9 124.52 353.68 124.42L353.44 125.78ZM11.36 149L14.44 139.34H12.88L10.52 147.04L7.98 139.34H6.7L4.16 147.04L1.8 139.34H0.24L3.32 149H4.82L7.34 141.24L9.86 149H11.36ZM16.9275 137.96C17.4875 137.96 17.9475 137.52 17.9475 136.96C17.9475 136.4 17.4875 135.94 16.9275 135.94C16.3875 135.94 15.9275 136.4 15.9275 136.96C15.9275 137.52 16.3875 137.96 16.9275 137.96ZM17.6875 149V139.34H16.1875V149H17.6875ZM23.1197 149.24C23.9997 149.24 24.5397 148.98 24.9197 148.62L24.4797 147.5C24.2797 147.72 23.8797 147.9 23.4597 147.9C22.7997 147.9 22.4797 147.38 22.4797 146.66V140.66H24.4397V139.34H22.4797V136.7H20.9797V139.34H19.3797V140.66H20.9797V146.98C20.9797 148.42 21.6997 149.24 23.1197 149.24ZM34.5986 149V142.18C34.5986 140.08 33.5386 139.1 31.5186 139.1C30.0586 139.1 28.7386 139.94 28.0586 140.74V135.66H26.5586V149H28.0586V141.94C28.6386 141.16 29.7586 140.44 30.9186 140.44C32.2186 140.44 33.0986 140.94 33.0986 142.64V149H34.5986ZM42.21 152.78C42.49 152.86 42.99 152.92 43.31 152.92C44.59 152.9 45.57 152.36 46.15 150.96L50.99 139.34H49.35L46.15 147.26L42.93 139.34H41.31L45.35 149.1L44.71 150.56C44.37 151.36 43.93 151.58 43.27 151.58C43.03 151.58 42.67 151.52 42.45 151.42L42.21 152.78ZM56.7747 149.24C59.7147 149.24 61.5547 146.96 61.5547 144.16C61.5547 141.36 59.7147 139.1 56.7747 139.1C53.8347 139.1 51.9947 141.36 51.9947 144.16C51.9947 146.96 53.8347 149.24 56.7747 149.24ZM56.7747 147.9C54.7147 147.9 53.5547 146.14 53.5547 144.16C53.5547 142.2 54.7147 140.44 56.7747 140.44C58.8347 140.44 59.9747 142.2 59.9747 144.16C59.9747 146.14 58.8347 147.9 56.7747 147.9ZM72.02 149V139.34H70.52V146.44C69.96 147.22 68.84 147.9 67.66 147.9C66.36 147.9 65.5 147.4 65.5 145.7V139.34H64V146.16C64 148.26 65.06 149.24 67.08 149.24C68.52 149.24 69.78 148.48 70.52 147.64V149H72.02ZM87.7119 149V142.36C87.7119 140.02 86.0119 139.1 83.9719 139.1C82.3919 139.1 81.1519 139.62 80.1119 140.7L80.8119 141.74C81.6719 140.82 82.6119 140.4 83.7719 140.4C85.1719 140.4 86.2119 141.14 86.2119 142.44V144.18C85.4319 143.28 84.3319 142.86 83.0119 142.86C81.3719 142.86 79.6319 143.88 79.6319 146.04C79.6319 148.14 81.3719 149.24 83.0119 149.24C84.3119 149.24 85.4119 148.78 86.2119 147.9V149H87.7119ZM83.5519 148.16C82.1519 148.16 81.1719 147.28 81.1719 146.06C81.1719 144.82 82.1519 143.94 83.5519 143.94C84.6119 143.94 85.6319 144.34 86.2119 145.14V146.96C85.6319 147.76 84.6119 148.16 83.5519 148.16ZM93.1588 149.24C94.0388 149.24 94.5788 148.98 94.9588 148.62L94.5188 147.5C94.3188 147.72 93.9188 147.9 93.4988 147.9C92.8388 147.9 92.5188 147.38 92.5188 146.66V140.66H94.4788V139.34H92.5188V136.7H91.0188V139.34H89.4188V140.66H91.0188V146.98C91.0188 148.42 91.7388 149.24 93.1588 149.24ZM109.294 149V142.36C109.294 140.02 107.594 139.1 105.554 139.1C103.974 139.1 102.734 139.62 101.694 140.7L102.394 141.74C103.254 140.82 104.194 140.4 105.354 140.4C106.754 140.4 107.794 141.14 107.794 142.44V144.18C107.014 143.28 105.914 142.86 104.594 142.86C102.954 142.86 101.214 143.88 101.214 146.04C101.214 148.14 102.954 149.24 104.594 149.24C105.894 149.24 106.994 148.78 107.794 147.9V149H109.294ZM105.134 148.16C103.734 148.16 102.754 147.28 102.754 146.06C102.754 144.82 103.734 143.94 105.134 143.94C106.194 143.94 107.214 144.34 107.794 145.14V146.96C107.214 147.76 106.194 148.16 105.134 148.16ZM113.801 149V135.66H112.301V149H113.801ZM118.293 149V135.66H116.793V149H118.293ZM128.881 149.24C129.761 149.24 130.301 148.98 130.681 148.62L130.241 147.5C130.041 147.72 129.641 147.9 129.221 147.9C128.561 147.9 128.241 147.38 128.241 146.66V140.66H130.201V139.34H128.241V136.7H126.741V139.34H125.141V140.66H126.741V146.98C126.741 148.42 127.461 149.24 128.881 149.24ZM133.06 137.96C133.62 137.96 134.08 137.52 134.08 136.96C134.08 136.4 133.62 135.94 133.06 135.94C132.52 135.94 132.06 136.4 132.06 136.96C132.06 137.52 132.52 137.96 133.06 137.96ZM133.82 149V139.34H132.32V149H133.82ZM149.973 149V142.02C149.973 140.08 149.033 139.1 147.273 139.1C145.872 139.1 144.573 140.02 144.033 140.9C143.753 139.9 142.913 139.1 141.433 139.1C140.013 139.1 138.713 140.12 138.313 140.74V139.34H136.813V149H138.313V141.94C138.833 141.16 139.873 140.44 140.853 140.44C142.113 140.44 142.633 141.22 142.633 142.44V149H144.133V141.92C144.633 141.16 145.693 140.44 146.693 140.44C147.933 140.44 148.473 141.22 148.473 142.44V149H149.973ZM157.325 149.24C158.905 149.24 160.205 148.72 161.165 147.76L160.445 146.78C159.685 147.56 158.565 148 157.465 148C155.385 148 154.105 146.48 153.985 144.66H161.805V144.28C161.805 141.38 160.085 139.1 157.165 139.1C154.405 139.1 152.405 141.36 152.405 144.16C152.405 147.18 154.465 149.24 157.325 149.24ZM160.325 143.56H153.985C154.065 142.08 155.085 140.34 157.145 140.34C159.345 140.34 160.305 142.12 160.325 143.56ZM167.294 149.24C169.794 149.24 171.094 147.94 171.094 146.32C171.094 142.56 165.114 143.96 165.114 141.84C165.114 140.98 165.934 140.32 167.254 140.32C168.494 140.32 169.554 140.84 170.134 141.54L170.834 140.5C170.054 139.72 168.894 139.1 167.254 139.1C164.954 139.1 163.654 140.38 163.654 141.88C163.654 145.46 169.634 144.02 169.634 146.36C169.634 147.32 168.834 148.02 167.354 148.02C166.034 148.02 164.814 147.38 164.174 146.64L163.394 147.72C164.374 148.76 165.714 149.24 167.294 149.24ZM174.331 149.2C174.931 149.2 175.431 148.7 175.431 148.1C175.431 147.5 174.931 147 174.331 147C173.731 147 173.231 147.5 173.231 148.1C173.231 148.7 173.731 149.2 174.331 149.2ZM7.88 203.24C10.24 203.24 11.84 202.12 12.96 200.6L11.54 199.82C10.78 200.96 9.4 201.76 7.88 201.76C4.96 201.76 2.74 199.5 2.74 196.34C2.74 193.16 4.96 190.92 7.88 190.92C9.4 190.92 10.78 191.74 11.54 192.86L12.94 192.08C11.88 190.58 10.24 189.44 7.88 189.44C4.04 189.44 1.02 192.24 1.02 196.34C1.02 200.44 4.04 203.24 7.88 203.24ZM19.2356 203.24C22.1756 203.24 24.0156 200.96 24.0156 198.16C24.0156 195.36 22.1756 193.1 19.2356 193.1C16.2956 193.1 14.4556 195.36 14.4556 198.16C14.4556 200.96 16.2956 203.24 19.2356 203.24ZM19.2356 201.9C17.1756 201.9 16.0156 200.14 16.0156 198.16C16.0156 196.2 17.1756 194.44 19.2356 194.44C21.2956 194.44 22.4356 196.2 22.4356 198.16C22.4356 200.14 21.2956 201.9 19.2356 201.9ZM34.4809 203V196.22C34.4809 194.12 33.4209 193.1 31.4009 193.1C29.9609 193.1 28.6409 193.94 27.9609 194.74V193.34H26.4609V203H27.9609V195.94C28.5209 195.16 29.6409 194.44 30.8209 194.44C32.1209 194.44 32.9809 194.98 32.9809 196.68V203H34.4809ZM39.9166 203.24C40.7966 203.24 41.3366 202.98 41.7166 202.62L41.2766 201.5C41.0766 201.72 40.6766 201.9 40.2566 201.9C39.5966 201.9 39.2766 201.38 39.2766 200.66V194.66H41.2366V193.34H39.2766V190.7H37.7766V193.34H36.1766V194.66H37.7766V200.98C37.7766 202.42 38.4966 203.24 39.9166 203.24ZM44.0955 191.96C44.6555 191.96 45.1155 191.52 45.1155 190.96C45.1155 190.4 44.6555 189.94 44.0955 189.94C43.5555 189.94 43.0955 190.4 43.0955 190.96C43.0955 191.52 43.5555 191.96 44.0955 191.96ZM44.8555 203V193.34H43.3555V203H44.8555ZM55.8677 203V196.22C55.8677 194.12 54.8077 193.1 52.7877 193.1C51.3477 193.1 50.0277 193.94 49.3477 194.74V193.34H47.8477V203H49.3477V195.94C49.9077 195.16 51.0277 194.44 52.2077 194.44C53.5077 194.44 54.3677 194.98 54.3677 196.68V203H55.8677ZM66.8833 203V193.34H65.3833V200.44C64.8233 201.22 63.7033 201.9 62.5233 201.9C61.2233 201.9 60.3633 201.4 60.3633 199.7V193.34H58.8633V200.16C58.8633 202.26 59.9233 203.24 61.9433 203.24C63.3833 203.24 64.6433 202.48 65.3833 201.64V203H66.8833ZM74.2389 203.24C75.8189 203.24 77.1189 202.72 78.0789 201.76L77.3589 200.78C76.5989 201.56 75.4789 202 74.3789 202C72.2989 202 71.0189 200.48 70.8989 198.66H78.7189V198.28C78.7189 195.38 76.9989 193.1 74.0789 193.1C71.3189 193.1 69.3189 195.36 69.3189 198.16C69.3189 201.18 71.3789 203.24 74.2389 203.24ZM77.2389 197.56H70.8989C70.9789 196.08 71.9989 194.34 74.0589 194.34C76.2589 194.34 77.2189 196.12 77.2389 197.56ZM88.7447 203.24C89.6247 203.24 90.1647 202.98 90.5447 202.62L90.1047 201.5C89.9047 201.72 89.5047 201.9 89.0847 201.9C88.4247 201.9 88.1047 201.38 88.1047 200.66V194.66H90.0647V193.34H88.1047V190.7H86.6047V193.34H85.0047V194.66H86.6047V200.98C86.6047 202.42 87.3247 203.24 88.7447 203.24ZM96.4036 203.24C99.3436 203.24 101.184 200.96 101.184 198.16C101.184 195.36 99.3436 193.1 96.4036 193.1C93.4636 193.1 91.6236 195.36 91.6236 198.16C91.6236 200.96 93.4636 203.24 96.4036 203.24ZM96.4036 201.9C94.3436 201.9 93.1836 200.14 93.1836 198.16C93.1836 196.2 94.3436 194.44 96.4036 194.44C98.4636 194.44 99.6036 196.2 99.6036 198.16C99.6036 200.14 98.4636 201.9 96.4036 201.9ZM111.845 203.24C114.345 203.24 115.645 201.94 115.645 200.32C115.645 196.56 109.665 197.96 109.665 195.84C109.665 194.98 110.485 194.32 111.805 194.32C113.045 194.32 114.105 194.84 114.685 195.54L115.385 194.5C114.605 193.72 113.445 193.1 111.805 193.1C109.505 193.1 108.205 194.38 108.205 195.88C108.205 199.46 114.185 198.02 114.185 200.36C114.185 201.32 113.385 202.02 111.905 202.02C110.585 202.02 109.365 201.38 108.725 200.64L107.945 201.72C108.925 202.76 110.265 203.24 111.845 203.24ZM122.442 203.24C124.022 203.24 125.322 202.72 126.282 201.76L125.562 200.78C124.802 201.56 123.682 202 122.582 202C120.502 202 119.222 200.48 119.102 198.66H126.922V198.28C126.922 195.38 125.202 193.1 122.282 193.1C119.522 193.1 117.522 195.36 117.522 198.16C117.522 201.18 119.582 203.24 122.442 203.24ZM125.442 197.56H119.102C119.182 196.08 120.202 194.34 122.262 194.34C124.462 194.34 125.422 196.12 125.442 197.56ZM133.712 203.24C135.292 203.24 136.592 202.72 137.552 201.76L136.832 200.78C136.072 201.56 134.952 202 133.852 202C131.772 202 130.492 200.48 130.372 198.66H138.192V198.28C138.192 195.38 136.472 193.1 133.552 193.1C130.792 193.1 128.792 195.36 128.792 198.16C128.792 201.18 130.852 203.24 133.712 203.24ZM136.712 197.56H130.372C130.452 196.08 131.472 194.34 133.532 194.34C135.732 194.34 136.692 196.12 136.712 197.56ZM153.797 203V196.22C153.797 194.12 152.737 193.1 150.717 193.1C149.277 193.1 147.957 193.94 147.277 194.74V193.34H145.777V203H147.277V195.94C147.837 195.16 148.957 194.44 150.137 194.44C151.437 194.44 152.297 194.98 152.297 196.68V203H153.797ZM161.153 203.24C162.733 203.24 164.033 202.72 164.993 201.76L164.273 200.78C163.513 201.56 162.393 202 161.293 202C159.213 202 157.933 200.48 157.813 198.66H165.633V198.28C165.633 195.38 163.913 193.1 160.993 193.1C158.233 193.1 156.233 195.36 156.233 198.16C156.233 201.18 158.293 203.24 161.153 203.24ZM164.153 197.56H157.813C157.893 196.08 158.913 194.34 160.973 194.34C163.173 194.34 164.133 196.12 164.153 197.56ZM177.923 203L181.003 193.34H179.443L177.083 201.04L174.543 193.34H173.263L170.723 201.04L168.363 193.34H166.803L169.883 203H171.383L173.903 195.24L176.423 203H177.923ZM196.406 203V189.66H194.906V194.8C194.126 193.74 192.946 193.1 191.646 193.1C189.106 193.1 187.346 195.1 187.346 198.18C187.346 201.32 189.126 203.24 191.646 203.24C193.006 203.24 194.186 202.54 194.906 201.56V203H196.406ZM192.006 201.9C190.066 201.9 188.906 200.32 188.906 198.18C188.906 196.04 190.066 194.44 192.006 194.44C193.206 194.44 194.366 195.16 194.906 196V200.38C194.366 201.22 193.206 201.9 192.006 201.9ZM203.63 203.24C206.57 203.24 208.41 200.96 208.41 198.16C208.41 195.36 206.57 193.1 203.63 193.1C200.69 193.1 198.85 195.36 198.85 198.16C198.85 200.96 200.69 203.24 203.63 203.24ZM203.63 201.9C201.57 201.9 200.41 200.14 200.41 198.16C200.41 196.2 201.57 194.44 203.63 194.44C205.69 194.44 206.83 196.2 206.83 198.16C206.83 200.14 205.69 201.9 203.63 201.9ZM215.115 203.24C216.875 203.24 217.915 202.52 218.655 201.56L217.655 200.64C217.015 201.5 216.195 201.9 215.195 201.9C213.135 201.9 211.855 200.3 211.855 198.16C211.855 196.02 213.135 194.44 215.195 194.44C216.195 194.44 217.015 194.82 217.655 195.7L218.655 194.78C217.915 193.82 216.875 193.1 215.115 193.1C212.235 193.1 210.295 195.3 210.295 198.16C210.295 201.04 212.235 203.24 215.115 203.24ZM223.198 203.24C224.078 203.24 224.618 202.98 224.998 202.62L224.558 201.5C224.358 201.72 223.958 201.9 223.538 201.9C222.878 201.9 222.558 201.38 222.558 200.66V194.66H224.518V193.34H222.558V190.7H221.058V193.34H219.458V194.66H221.058V200.98C221.058 202.42 221.778 203.24 223.198 203.24ZM230.857 203.24C233.797 203.24 235.637 200.96 235.637 198.16C235.637 195.36 233.797 193.1 230.857 193.1C227.917 193.1 226.077 195.36 226.077 198.16C226.077 200.96 227.917 203.24 230.857 203.24ZM230.857 201.9C228.797 201.9 227.637 200.14 227.637 198.16C227.637 196.2 228.797 194.44 230.857 194.44C232.917 194.44 234.057 196.2 234.057 198.16C234.057 200.14 232.917 201.9 230.857 201.9ZM239.582 203V196.16C240.022 195.38 241.282 194.62 242.202 194.62C242.442 194.62 242.622 194.64 242.802 194.68V193.14C241.482 193.14 240.362 193.88 239.582 194.9V193.34H238.082V203H239.582ZM247.744 203.24C250.244 203.24 251.544 201.94 251.544 200.32C251.544 196.56 245.564 197.96 245.564 195.84C245.564 194.98 246.384 194.32 247.704 194.32C248.944 194.32 250.004 194.84 250.584 195.54L251.284 194.5C250.504 193.72 249.344 193.1 247.704 193.1C245.404 193.1 244.104 194.38 244.104 195.88C244.104 199.46 250.084 198.02 250.084 200.36C250.084 201.32 249.284 202.02 247.804 202.02C246.484 202.02 245.264 201.38 244.624 200.64L243.844 201.72C244.824 202.76 246.164 203.24 247.744 203.24ZM254.78 203.2C255.38 203.2 255.88 202.7 255.88 202.1C255.88 201.5 255.38 201 254.78 201C254.18 201 253.68 201.5 253.68 202.1C253.68 202.7 254.18 203.2 254.78 203.2ZM269.346 203V197.36L274.586 189.66H272.646L268.506 195.86L264.366 189.66H262.426L267.686 197.36V203H269.346ZM277.947 203.24C280.887 203.24 282.727 200.96 282.727 198.16C282.727 195.36 280.887 193.1 277.947 193.1C275.007 193.1 273.167 195.36 273.167 198.16C273.167 200.96 275.007 203.24 277.947 203.24ZM277.947 201.9C275.887 201.9 274.727 200.14 274.727 198.16C274.727 196.2 275.887 194.44 277.947 194.44C280.007 194.44 281.147 196.2 281.147 198.16C281.147 200.14 280.007 201.9 277.947 201.9ZM293.192 203V193.34H291.692V200.44C291.132 201.22 290.012 201.9 288.832 201.9C287.532 201.9 286.672 201.4 286.672 199.7V193.34H285.172V200.16C285.172 202.26 286.232 203.24 288.252 203.24C289.692 203.24 290.952 202.48 291.692 201.64V203H293.192ZM297.688 203V196.16C298.128 195.38 299.388 194.62 300.308 194.62C300.548 194.62 300.728 194.64 300.908 194.68V193.14C299.588 193.14 298.468 193.88 297.688 194.9V193.34H296.188V203H297.688ZM312.205 203.24C313.965 203.24 315.005 202.52 315.745 201.56L314.745 200.64C314.105 201.5 313.285 201.9 312.285 201.9C310.225 201.9 308.945 200.3 308.945 198.16C308.945 196.02 310.225 194.44 312.285 194.44C313.285 194.44 314.105 194.82 314.745 195.7L315.745 194.78C315.005 193.82 313.965 193.1 312.205 193.1C309.325 193.1 307.385 195.3 307.385 198.16C307.385 201.04 309.325 203.24 312.205 203.24ZM325.388 203V196.36C325.388 194.02 323.688 193.1 321.648 193.1C320.068 193.1 318.828 193.62 317.788 194.7L318.488 195.74C319.348 194.82 320.288 194.4 321.448 194.4C322.848 194.4 323.888 195.14 323.888 196.44V198.18C323.108 197.28 322.008 196.86 320.688 196.86C319.048 196.86 317.308 197.88 317.308 200.04C317.308 202.14 319.048 203.24 320.688 203.24C321.988 203.24 323.088 202.78 323.888 201.9V203H325.388ZM321.228 202.16C319.828 202.16 318.848 201.28 318.848 200.06C318.848 198.82 319.828 197.94 321.228 197.94C322.288 197.94 323.308 198.34 323.888 199.14V200.96C323.308 201.76 322.288 202.16 321.228 202.16ZM329.895 203V196.16C330.335 195.38 331.595 194.62 332.515 194.62C332.755 194.62 332.935 194.64 333.115 194.68V193.14C331.795 193.14 330.675 193.88 329.895 194.9V193.34H328.395V203H329.895ZM339.356 203.24C340.936 203.24 342.236 202.72 343.196 201.76L342.476 200.78C341.716 201.56 340.596 202 339.496 202C337.416 202 336.136 200.48 336.016 198.66H343.836V198.28C343.836 195.38 342.116 193.1 339.196 193.1C336.436 193.1 334.436 195.36 334.436 198.16C334.436 201.18 336.496 203.24 339.356 203.24ZM342.356 197.56H336.016C336.096 196.08 337.116 194.34 339.176 194.34C341.376 194.34 342.336 196.12 342.356 197.56ZM3.94 230.24C4.82 230.24 5.36 229.98 5.74 229.62L5.3 228.5C5.1 228.72 4.7 228.9 4.28 228.9C3.62 228.9 3.3 228.38 3.3 227.66V221.66H5.26V220.34H3.3V217.7H1.8V220.34H0.2V221.66H1.8V227.98C1.8 229.42 2.52 230.24 3.94 230.24ZM11.7389 230.24C13.3189 230.24 14.6189 229.72 15.5789 228.76L14.8589 227.78C14.0989 228.56 12.9789 229 11.8789 229C9.79891 229 8.51891 227.48 8.39891 225.66H16.2189V225.28C16.2189 222.38 14.4989 220.1 11.5789 220.1C8.81891 220.1 6.81891 222.36 6.81891 225.16C6.81891 228.18 8.87891 230.24 11.7389 230.24ZM14.7389 224.56H8.39891C8.47891 223.08 9.49891 221.34 11.5589 221.34C13.7589 221.34 14.7189 223.12 14.7389 224.56ZM26.1884 230V223.36C26.1884 221.02 24.4884 220.1 22.4484 220.1C20.8684 220.1 19.6284 220.62 18.5884 221.7L19.2884 222.74C20.1484 221.82 21.0884 221.4 22.2484 221.4C23.6484 221.4 24.6884 222.14 24.6884 223.44V225.18C23.9084 224.28 22.8084 223.86 21.4884 223.86C19.8484 223.86 18.1084 224.88 18.1084 227.04C18.1084 229.14 19.8484 230.24 21.4884 230.24C22.7884 230.24 23.8884 229.78 24.6884 228.9V230H26.1884ZM22.0284 229.16C20.6284 229.16 19.6484 228.28 19.6484 227.06C19.6484 225.82 20.6284 224.94 22.0284 224.94C23.0884 224.94 24.1084 225.34 24.6884 226.14V227.96C24.1084 228.76 23.0884 229.16 22.0284 229.16ZM42.3553 230V223.02C42.3553 221.08 41.4153 220.1 39.6553 220.1C38.2553 220.1 36.9553 221.02 36.4153 221.9C36.1353 220.9 35.2953 220.1 33.8153 220.1C32.3953 220.1 31.0953 221.12 30.6953 221.74V220.34H29.1953V230H30.6953V222.94C31.2153 222.16 32.2553 221.44 33.2353 221.44C34.4953 221.44 35.0153 222.22 35.0153 223.44V230H36.5153V222.92C37.0153 222.16 38.0753 221.44 39.0753 221.44C40.3153 221.44 40.8553 222.22 40.8553 223.44V230H42.3553ZM51.2439 218.96C51.8039 218.96 52.2639 218.52 52.2639 217.96C52.2639 217.4 51.8039 216.94 51.2439 216.94C50.7039 216.94 50.2439 217.4 50.2439 217.96C50.2439 218.52 50.7039 218.96 51.2439 218.96ZM52.0039 230V220.34H50.5039V230H52.0039ZM58.0561 230.24C60.5561 230.24 61.8561 228.94 61.8561 227.32C61.8561 223.56 55.8761 224.96 55.8761 222.84C55.8761 221.98 56.6961 221.32 58.0161 221.32C59.2561 221.32 60.3161 221.84 60.8961 222.54L61.5961 221.5C60.8161 220.72 59.6561 220.1 58.0161 220.1C55.7161 220.1 54.4161 221.38 54.4161 222.88C54.4161 226.46 60.3961 225.02 60.3961 227.36C60.3961 228.32 59.5961 229.02 58.1161 229.02C56.7961 229.02 55.5761 228.38 54.9361 227.64L54.1561 228.72C55.1361 229.76 56.4761 230.24 58.0561 230.24ZM79.3092 230L82.3892 220.34H80.8292L78.4692 228.04L75.9292 220.34H74.6492L72.1092 228.04L69.7492 220.34H68.1892L71.2692 230H72.7692L75.2892 222.24L77.8092 230H79.3092ZM84.8767 218.96C85.4367 218.96 85.8967 218.52 85.8967 217.96C85.8967 217.4 85.4367 216.94 84.8767 216.94C84.3367 216.94 83.8767 217.4 83.8767 217.96C83.8767 218.52 84.3367 218.96 84.8767 218.96ZM85.6367 230V220.34H84.1367V230H85.6367ZM91.0689 230.24C91.9489 230.24 92.4889 229.98 92.8689 229.62L92.4289 228.5C92.2289 228.72 91.8289 228.9 91.4089 228.9C90.7489 228.9 90.4289 228.38 90.4289 227.66V221.66H92.3889V220.34H90.4289V217.7H88.9289V220.34H87.3289V221.66H88.9289V227.98C88.9289 229.42 89.6489 230.24 91.0689 230.24ZM102.548 230V223.18C102.548 221.08 101.488 220.1 99.4678 220.1C98.0078 220.1 96.6878 220.94 96.0078 221.74V216.66H94.5078V230H96.0078V222.94C96.5878 222.16 97.7078 221.44 98.8678 221.44C100.168 221.44 101.048 221.94 101.048 223.64V230H102.548ZM110.159 233.78C110.439 233.86 110.939 233.92 111.259 233.92C112.539 233.9 113.519 233.36 114.099 231.96L118.939 220.34H117.299L114.099 228.26L110.879 220.34H109.259L113.299 230.1L112.659 231.56C112.319 232.36 111.879 232.58 111.219 232.58C110.979 232.58 110.619 232.52 110.399 232.42L110.159 233.78ZM124.724 230.24C127.664 230.24 129.504 227.96 129.504 225.16C129.504 222.36 127.664 220.1 124.724 220.1C121.784 220.1 119.944 222.36 119.944 225.16C119.944 227.96 121.784 230.24 124.724 230.24ZM124.724 228.9C122.664 228.9 121.504 227.14 121.504 225.16C121.504 223.2 122.664 221.44 124.724 221.44C126.784 221.44 127.924 223.2 127.924 225.16C127.924 227.14 126.784 228.9 124.724 228.9ZM139.969 230V220.34H138.469V227.44C137.909 228.22 136.789 228.9 135.609 228.9C134.309 228.9 133.449 228.4 133.449 226.7V220.34H131.949V227.16C131.949 229.26 133.009 230.24 135.029 230.24C136.469 230.24 137.729 229.48 138.469 228.64V230H139.969ZM149.621 230V216.66H148.121V230H149.621ZM156.833 230.24C159.773 230.24 161.613 227.96 161.613 225.16C161.613 222.36 159.773 220.1 156.833 220.1C153.893 220.1 152.053 222.36 152.053 225.16C152.053 227.96 153.893 230.24 156.833 230.24ZM156.833 228.9C154.773 228.9 153.613 227.14 153.613 225.16C153.613 223.2 154.773 221.44 156.833 221.44C158.893 221.44 160.033 223.2 160.033 225.16C160.033 227.14 158.893 228.9 156.833 228.9ZM172.079 230V223.22C172.079 221.12 171.019 220.1 168.999 220.1C167.559 220.1 166.239 220.94 165.559 221.74V220.34H164.059V230H165.559V222.94C166.119 222.16 167.239 221.44 168.419 221.44C169.719 221.44 170.579 221.98 170.579 223.68V230H172.079ZM178.954 233.92C181.314 233.92 183.554 232.92 183.554 229.72V220.34H182.054V221.8C181.274 220.74 180.114 220.1 178.814 220.1C176.274 220.1 174.514 222.02 174.514 225.12C174.514 228.24 176.294 230.12 178.814 230.12C180.174 230.12 181.354 229.38 182.054 228.4V229.78C182.054 231.9 180.554 232.68 178.954 232.68C177.574 232.68 176.614 232.32 175.814 231.36L175.054 232.48C176.194 233.6 177.314 233.92 178.954 233.92ZM179.174 228.8C177.234 228.8 176.074 227.24 176.074 225.12C176.074 222.98 177.234 221.44 179.174 221.44C180.374 221.44 181.534 222.16 182.054 223V227.22C181.534 228.06 180.374 228.8 179.174 228.8ZM188.999 230.24C189.879 230.24 190.419 229.98 190.799 229.62L190.359 228.5C190.159 228.72 189.759 228.9 189.339 228.9C188.679 228.9 188.359 228.38 188.359 227.66V221.66H190.319V220.34H188.359V217.7H186.859V220.34H185.259V221.66H186.859V227.98C186.859 229.42 187.579 230.24 188.999 230.24ZM196.798 230.24C198.378 230.24 199.678 229.72 200.638 228.76L199.918 227.78C199.158 228.56 198.038 229 196.938 229C194.858 229 193.577 227.48 193.458 225.66H201.278V225.28C201.278 222.38 199.558 220.1 196.638 220.1C193.877 220.1 191.878 222.36 191.878 225.16C191.878 228.18 193.938 230.24 196.798 230.24ZM199.798 224.56H193.458C193.538 223.08 194.558 221.34 196.618 221.34C198.818 221.34 199.778 223.12 199.798 224.56ZM205.207 230V223.16C205.647 222.38 206.907 221.62 207.827 221.62C208.067 221.62 208.247 221.64 208.427 221.68V220.14C207.107 220.14 205.987 220.88 205.207 221.9V220.34H203.707V230H205.207ZM223.469 230V223.02C223.469 221.08 222.529 220.1 220.769 220.1C219.369 220.1 218.069 221.02 217.529 221.9C217.249 220.9 216.409 220.1 214.929 220.1C213.509 220.1 212.209 221.12 211.809 221.74V220.34H210.309V230H211.809V222.94C212.329 222.16 213.369 221.44 214.349 221.44C215.609 221.44 216.129 222.22 216.129 223.44V230H217.629V222.92C218.129 222.16 219.189 221.44 220.189 221.44C221.429 221.44 221.969 222.22 221.969 223.44V230H223.469Z" fill="#1F2343"/>
</svg>
