<svg width="642" height="625" viewBox="0 0 642 625" fill="none" xmlns="http://www.w3.org/2000/svg">
<path d="M79 215C86.1797 215 92 220.82 92 228H79V215Z" fill="#C2E0F7"/>
<path d="M238 0C263.957 0 285 21.0426 285 47H238V0Z" fill="#C2E0F7"/>
<path d="M588 459C597.941 459 606 467.059 606 477H588V459Z" fill="#C2E0F7"/>
<path d="M79 269H92V282C84.8203 282 79 276.18 79 269Z" fill="#F7C2E8"/>
<path d="M367 468H428V529C394.311 529 367 501.689 367 468Z" fill="#F7C2E8"/>
<path d="M606 511H624V529C614.059 529 606 520.941 606 511Z" fill="#F7C2E8"/>
<path d="M79 336C79 328.82 84.8203 323 92 323V336H79Z" fill="#C6C2F7"/>
<path d="M473 221C473 167.428 516.428 124 570 124V222H473V221Z" fill="#C6C2F7"/>
<path d="M624 495C624 485.059 632.059 477 642 477V495H624Z" fill="#C6C2F7"/>
<path d="M79 408H92C92 415.18 86.1797 421 79 421V408Z" fill="#F7D2C2"/>
<path d="M0 527H98C98 581.124 54.1239 625 0 625V527Z" fill="#F7D2C2"/>
</svg>
