<svg width="170" height="36" viewBox="0 0 170 36" fill="none" xmlns="http://www.w3.org/2000/svg">
<circle cx="17.5693" cy="17.5693" r="17.0693" fill="#4068D1" stroke="white"/>
<circle cx="62.0742" cy="17.5693" r="17.0693" fill="#FF3030" stroke="white"/>
<path d="M68.4543 13.9195C67.949 13.3188 67.0159 13.0737 65.234 13.0737H58.7658C56.9432 13.0737 55.9943 13.3346 55.4909 13.9742C55 14.5977 55 15.5165 55 16.7882V19.212C55 21.6756 55.5824 22.9264 58.7658 22.9264H65.2341C66.7793 22.9264 67.6356 22.7102 68.1895 22.18C68.7576 21.6364 69 20.7487 69 19.212V16.7882C69 15.4471 68.962 14.5229 68.4543 13.9195ZM63.988 18.3347L61.0508 19.8698C60.9852 19.9041 60.9134 19.9211 60.8417 19.9211C60.7605 19.9211 60.6794 19.8993 60.6077 19.8558C60.4726 19.7739 60.39 19.6275 60.39 19.4695V16.4092C60.39 16.2515 60.4723 16.1052 60.6072 16.0233C60.7421 15.9413 60.9099 15.9357 61.0498 16.0084L63.987 17.5336C64.1364 17.6112 64.2303 17.7655 64.2305 17.9338C64.2307 18.1023 64.1373 18.2568 63.988 18.3347Z" fill="white"/>
<circle cx="107.926" cy="17.5693" r="17.0693" fill="#56BBF3" stroke="white"/>
<circle cx="152.431" cy="17.5693" r="17.0693" fill="#1A8BF3" stroke="white"/>
</svg>
