<svg width="434" height="14" viewBox="0 0 434 14" fill="none" xmlns="http://www.w3.org/2000/svg">
<path d="M0.98877 11V0.995117H3.12012V4.92822H7.84424V0.995117H9.99023V11H7.84424V6.78857H3.12012V11H0.98877ZM11.9019 9.27148C11.604 8.69531 11.4551 8.06055 11.4551 7.36719C11.4551 6.67383 11.604 6.04395 11.9019 5.47754C12.2046 4.90625 12.6489 4.44727 13.2349 4.10059C13.8257 3.74902 14.5068 3.57324 15.2783 3.57324C16.0547 3.57324 16.7383 3.74902 17.3291 4.10059C17.9199 4.44727 18.3643 4.90625 18.6621 5.47754C18.9648 6.04395 19.1162 6.67383 19.1162 7.36719C19.1162 8.06055 18.9648 8.69531 18.6621 9.27148C18.3643 9.84277 17.9199 10.3042 17.3291 10.6558C16.7383 11.0073 16.0547 11.1831 15.2783 11.1831C14.5068 11.1831 13.8257 11.0073 13.2349 10.6558C12.6489 10.3042 12.2046 9.84277 11.9019 9.27148ZM13.4326 7.36719C13.4326 7.96289 13.5962 8.46582 13.9233 8.87598C14.2554 9.28125 14.707 9.48389 15.2783 9.48389C15.8545 9.48389 16.3086 9.28125 16.6406 8.87598C16.9727 8.4707 17.1387 7.96777 17.1387 7.36719C17.1387 6.77637 16.9727 6.28076 16.6406 5.88037C16.3086 5.4751 15.8545 5.27246 15.2783 5.27246C14.707 5.27246 14.2554 5.4751 13.9233 5.88037C13.5962 6.28076 13.4326 6.77637 13.4326 7.36719ZM20.5444 11V3.75635H22.4487V4.68652C22.644 4.42773 22.9614 4.17871 23.4009 3.93945C23.8452 3.69531 24.3188 3.57324 24.8218 3.57324C25.3442 3.57324 25.7764 3.68799 26.1182 3.91748C26.46 4.14209 26.6968 4.46191 26.8286 4.87695C27.0581 4.52539 27.3999 4.22021 27.854 3.96143C28.3081 3.70264 28.7964 3.57324 29.3188 3.57324C29.9976 3.57324 30.5225 3.75635 30.8936 4.12256C31.2646 4.48877 31.4502 5.03564 31.4502 5.76318V11H29.5312V6.42236C29.5312 6.06592 29.4434 5.78516 29.2676 5.58008C29.0918 5.375 28.8184 5.27246 28.4473 5.27246C28.1396 5.27246 27.8516 5.35547 27.583 5.52148C27.3193 5.6875 27.1094 5.88281 26.9531 6.10742V11H25.0269V6.42236C25.0269 5.65576 24.668 5.27246 23.9502 5.27246C23.6475 5.27246 23.3618 5.35547 23.0933 5.52148C22.8296 5.6875 22.6147 5.88281 22.4487 6.10742V11H20.5444ZM32.8711 7.36719C32.8711 6.66895 33.0298 6.03174 33.3472 5.45557C33.6646 4.87939 34.1113 4.42285 34.6875 4.08594C35.2637 3.74414 35.9082 3.57324 36.6211 3.57324C37.7051 3.57324 38.5791 3.94189 39.2432 4.6792C39.9121 5.41162 40.2466 6.36865 40.2466 7.55029V7.99707H34.8633C34.9316 8.46582 35.1489 8.854 35.5151 9.16162C35.8813 9.46924 36.3599 9.62305 36.9507 9.62305C37.2729 9.62305 37.6172 9.55957 37.9834 9.43262C38.3545 9.30078 38.6499 9.12744 38.8696 8.9126L39.7192 10.1724C39.3677 10.4946 38.9258 10.7437 38.3936 10.9194C37.8662 11.0952 37.3145 11.1831 36.7383 11.1831C35.6201 11.1831 34.6948 10.834 33.9624 10.1357C33.2349 9.43262 32.8711 8.50977 32.8711 7.36719ZM34.8486 6.67871H38.4155C38.4009 6.49316 38.3569 6.31494 38.2837 6.14404C38.2104 5.97314 38.1055 5.80957 37.9688 5.65332C37.8369 5.49707 37.6538 5.37256 37.4194 5.27979C37.1851 5.18213 36.9189 5.1333 36.6211 5.1333C36.3379 5.1333 36.084 5.17969 35.8594 5.27246C35.6348 5.36523 35.4541 5.48975 35.3174 5.646C35.1807 5.79736 35.0732 5.96094 34.9951 6.13672C34.917 6.30762 34.8682 6.48828 34.8486 6.67871ZM80.1929 11V0.995117H84.873C85.4004 0.995117 85.8789 1.08057 86.3086 1.25146C86.7432 1.42236 87.0972 1.6543 87.3706 1.94727C87.6489 2.24023 87.8613 2.58203 88.0078 2.97266C88.1592 3.3584 88.2349 3.77344 88.2349 4.21777C88.2349 4.65723 88.1592 5.06982 88.0078 5.45557C87.8613 5.84131 87.6489 6.18311 87.3706 6.48096C87.0923 6.77393 86.7383 7.00586 86.3086 7.17676C85.8789 7.34766 85.4004 7.43311 84.873 7.43311H82.3242V11H80.1929ZM82.3242 5.55811H84.5728C85.0024 5.55811 85.3564 5.43604 85.6348 5.19189C85.918 4.94775 86.0596 4.62305 86.0596 4.21777C86.0596 3.80762 85.918 3.48047 85.6348 3.23633C85.3564 2.99219 85.0024 2.87012 84.5728 2.87012H82.3242V5.55811ZM89.5239 11V3.75635H91.4282V4.73047C91.7065 4.39844 92.0532 4.12256 92.4683 3.90283C92.8882 3.68311 93.313 3.57324 93.7427 3.57324V5.43359C93.6108 5.4043 93.4351 5.38965 93.2153 5.38965C92.8931 5.38965 92.5537 5.47266 92.1973 5.63867C91.8408 5.7998 91.5845 5.99268 91.4282 6.21729V11H89.5239ZM94.9146 9.27148C94.6167 8.69531 94.4678 8.06055 94.4678 7.36719C94.4678 6.67383 94.6167 6.04395 94.9146 5.47754C95.2173 4.90625 95.6616 4.44727 96.2476 4.10059C96.8384 3.74902 97.5195 3.57324 98.291 3.57324C99.0674 3.57324 99.751 3.74902 100.342 4.10059C100.933 4.44727 101.377 4.90625 101.675 5.47754C101.978 6.04395 102.129 6.67383 102.129 7.36719C102.129 8.06055 101.978 8.69531 101.675 9.27148C101.377 9.84277 100.933 10.3042 100.342 10.6558C99.751 11.0073 99.0674 11.1831 98.291 11.1831C97.5195 11.1831 96.8384 11.0073 96.2476 10.6558C95.6616 10.3042 95.2173 9.84277 94.9146 9.27148ZM96.4453 7.36719C96.4453 7.96289 96.6089 8.46582 96.936 8.87598C97.2681 9.28125 97.7197 9.48389 98.291 9.48389C98.8672 9.48389 99.3213 9.28125 99.6533 8.87598C99.9854 8.4707 100.151 7.96777 100.151 7.36719C100.151 6.77637 99.9854 6.28076 99.6533 5.88037C99.3213 5.4751 98.8672 5.27246 98.291 5.27246C97.7197 5.27246 97.2681 5.4751 96.936 5.88037C96.6089 6.28076 96.4453 6.77637 96.4453 7.36719ZM103.096 7.36719C103.096 6.20996 103.394 5.28955 103.989 4.60596C104.59 3.91748 105.361 3.57324 106.304 3.57324C106.743 3.57324 107.156 3.66846 107.542 3.85889C107.927 4.04443 108.259 4.32031 108.538 4.68652V0.995117H110.457V11H108.538V10.0698C107.947 10.812 107.202 11.1831 106.304 11.1831C105.366 11.1831 104.597 10.8438 103.997 10.165C103.396 9.48633 103.096 8.55371 103.096 7.36719ZM105.059 7.36719C105.059 7.99707 105.229 8.50732 105.571 8.89795C105.913 9.28857 106.357 9.48389 106.904 9.48389C107.222 9.48389 107.534 9.4082 107.842 9.25684C108.149 9.10059 108.381 8.90283 108.538 8.66357V6.09277C108.381 5.85352 108.149 5.6582 107.842 5.50684C107.534 5.35059 107.222 5.27246 106.904 5.27246C106.357 5.27246 105.913 5.46533 105.571 5.85107C105.229 6.23682 105.059 6.74219 105.059 7.36719ZM112.346 8.89795V3.75635H114.25V8.15088C114.25 8.62939 114.365 8.97119 114.595 9.17627C114.824 9.38135 115.154 9.48389 115.583 9.48389C115.925 9.48389 116.24 9.40576 116.528 9.24951C116.816 9.09326 117.053 8.89795 117.239 8.66357V3.75635H119.143V11H117.239V10.0845C116.951 10.397 116.589 10.6582 116.155 10.8682C115.725 11.0781 115.237 11.1831 114.69 11.1831C113.914 11.1831 113.328 10.9829 112.932 10.5825C112.542 10.1821 112.346 9.62061 112.346 8.89795ZM120.571 7.36719C120.571 6.25879 120.933 5.35059 121.655 4.64258C122.378 3.92969 123.296 3.57324 124.409 3.57324C125.679 3.57324 126.633 4.00781 127.273 4.87695L126.028 6.04883C125.681 5.53125 125.171 5.27246 124.497 5.27246C123.916 5.27246 123.442 5.46533 123.076 5.85107C122.715 6.23682 122.534 6.74219 122.534 7.36719C122.534 7.99707 122.715 8.50732 123.076 8.89795C123.442 9.28857 123.916 9.48389 124.497 9.48389C125.151 9.48389 125.662 9.22021 126.028 8.69287L127.273 9.85742C126.995 10.2383 126.619 10.5557 126.145 10.8096C125.671 11.0586 125.093 11.1831 124.409 11.1831C123.296 11.1831 122.378 10.8267 121.655 10.1138C120.933 9.396 120.571 8.48047 120.571 7.36719ZM127.705 5.41895V3.75635H128.906V1.77148H130.811V3.75635H132.283V5.41895H130.811V8.67822C130.811 8.9126 130.869 9.10547 130.986 9.25684C131.104 9.4082 131.265 9.48389 131.47 9.48389C131.606 9.48389 131.738 9.46191 131.865 9.41797C131.992 9.37402 132.083 9.32031 132.136 9.25684L132.539 10.7144C132.192 11.0269 131.663 11.1831 130.95 11.1831C130.286 11.1831 129.778 11.0146 129.426 10.6777C129.08 10.3359 128.906 9.83789 128.906 9.18359V5.41895H127.705ZM172.156 11V0.995117H176.836C177.363 0.995117 177.842 1.08057 178.271 1.25146C178.706 1.42236 179.06 1.6543 179.333 1.94727C179.612 2.24023 179.824 2.58203 179.971 2.97266C180.122 3.3584 180.198 3.77344 180.198 4.21777C180.198 4.65723 180.122 5.06982 179.971 5.45557C179.824 5.84131 179.612 6.18311 179.333 6.48096C179.055 6.77393 178.701 7.00586 178.271 7.17676C177.842 7.34766 177.363 7.43311 176.836 7.43311H174.287V11H172.156ZM174.287 5.55811H176.536C176.965 5.55811 177.319 5.43604 177.598 5.19189C177.881 4.94775 178.022 4.62305 178.022 4.21777C178.022 3.80762 177.881 3.48047 177.598 3.23633C177.319 2.99219 176.965 2.87012 176.536 2.87012H174.287V5.55811ZM181.487 11V3.75635H183.391V4.73047C183.669 4.39844 184.016 4.12256 184.431 3.90283C184.851 3.68311 185.276 3.57324 185.706 3.57324V5.43359C185.574 5.4043 185.398 5.38965 185.178 5.38965C184.856 5.38965 184.517 5.47266 184.16 5.63867C183.804 5.7998 183.547 5.99268 183.391 6.21729V11H181.487ZM187.039 2.64307C186.819 2.41846 186.709 2.1499 186.709 1.8374C186.709 1.5249 186.819 1.25879 187.039 1.03906C187.263 0.819336 187.529 0.709473 187.837 0.709473C188.154 0.709473 188.423 0.819336 188.643 1.03906C188.867 1.25879 188.979 1.5249 188.979 1.8374C188.979 2.1499 188.867 2.41846 188.643 2.64307C188.423 2.86279 188.154 2.97266 187.837 2.97266C187.529 2.97266 187.263 2.86279 187.039 2.64307ZM186.892 11V3.75635H188.796V11H186.892ZM190.225 7.36719C190.225 6.25879 190.586 5.35059 191.309 4.64258C192.031 3.92969 192.949 3.57324 194.062 3.57324C195.332 3.57324 196.287 4.00781 196.926 4.87695L195.681 6.04883C195.334 5.53125 194.824 5.27246 194.15 5.27246C193.569 5.27246 193.096 5.46533 192.729 5.85107C192.368 6.23682 192.188 6.74219 192.188 7.36719C192.188 7.99707 192.368 8.50732 192.729 8.89795C193.096 9.28857 193.569 9.48389 194.15 9.48389C194.805 9.48389 195.315 9.22021 195.681 8.69287L196.926 9.85742C196.648 10.2383 196.272 10.5557 195.798 10.8096C195.325 11.0586 194.746 11.1831 194.062 11.1831C192.949 11.1831 192.031 10.8267 191.309 10.1138C190.586 9.396 190.225 8.48047 190.225 7.36719ZM198.318 2.64307C198.098 2.41846 197.988 2.1499 197.988 1.8374C197.988 1.5249 198.098 1.25879 198.318 1.03906C198.542 0.819336 198.809 0.709473 199.116 0.709473C199.434 0.709473 199.702 0.819336 199.922 1.03906C200.146 1.25879 200.259 1.5249 200.259 1.8374C200.259 2.1499 200.146 2.41846 199.922 2.64307C199.702 2.86279 199.434 2.97266 199.116 2.97266C198.809 2.97266 198.542 2.86279 198.318 2.64307ZM198.171 11V3.75635H200.076V11H198.171ZM201.965 11V3.75635H203.87V4.68652C204.133 4.37891 204.485 4.11768 204.924 3.90283C205.369 3.68311 205.862 3.57324 206.404 3.57324C207.185 3.57324 207.776 3.77832 208.176 4.18848C208.577 4.59375 208.777 5.16016 208.777 5.8877V11H206.858V6.62012C206.858 6.1416 206.741 5.79736 206.506 5.5874C206.277 5.37744 205.947 5.27246 205.518 5.27246C205.171 5.27246 204.856 5.35303 204.573 5.51416C204.29 5.67041 204.055 5.86816 203.87 6.10742V11H201.965ZM210.19 7.26465C210.19 6.10742 210.486 5.2041 211.077 4.55469C211.672 3.90039 212.441 3.57324 213.384 3.57324C214.302 3.57324 215.051 3.94434 215.632 4.68652V3.75635H217.537V10.5166C217.537 11.0439 217.456 11.5127 217.295 11.9229C217.139 12.333 216.934 12.6626 216.68 12.9116C216.426 13.1606 216.123 13.3633 215.771 13.5195C215.42 13.6807 215.071 13.7905 214.724 13.8491C214.377 13.9077 214.011 13.937 213.625 13.937C212.986 13.937 212.417 13.854 211.919 13.688C211.421 13.522 210.95 13.2461 210.505 12.8604L211.355 11.498C211.902 12.084 212.659 12.377 213.625 12.377C213.875 12.377 214.109 12.3477 214.329 12.2891C214.548 12.2305 214.761 12.1353 214.966 12.0034C215.171 11.8716 215.332 11.6787 215.449 11.4248C215.571 11.1709 215.632 10.8682 215.632 10.5166V9.81348C215.032 10.5654 214.282 10.9414 213.384 10.9414C212.446 10.9414 211.68 10.6216 211.084 9.98193C210.488 9.3374 210.19 8.43164 210.19 7.26465ZM212.659 5.80713C212.322 6.16357 212.153 6.64941 212.153 7.26465C212.153 7.87988 212.322 8.36572 212.659 8.72217C212.996 9.07861 213.442 9.25684 213.999 9.25684C214.302 9.25684 214.607 9.17871 214.915 9.02246C215.227 8.86621 215.466 8.6709 215.632 8.43652V6.07812C215.466 5.84863 215.229 5.6582 214.922 5.50684C214.614 5.35059 214.307 5.27246 213.999 5.27246C213.442 5.27246 212.996 5.45068 212.659 5.80713ZM256.948 11L260.801 0.995117H263.474L267.327 11H264.91L264.28 9.30811H259.995L259.365 11H256.948ZM260.574 7.43311H263.694L262.134 3.12646L260.574 7.43311ZM268.206 11V0.995117H270.11V4.68652C270.388 4.32031 270.72 4.04443 271.106 3.85889C271.492 3.66846 271.904 3.57324 272.344 3.57324C273.286 3.57324 274.058 3.91748 274.658 4.60596C275.259 5.28955 275.559 6.20996 275.559 7.36719C275.559 8.55371 275.259 9.48633 274.658 10.165C274.058 10.8438 273.286 11.1831 272.344 11.1831C271.445 11.1831 270.701 10.812 270.11 10.0698V11H268.206ZM270.11 8.67822C270.276 8.9126 270.513 9.10547 270.82 9.25684C271.133 9.4082 271.445 9.48389 271.758 9.48389C272.305 9.48389 272.747 9.28857 273.083 8.89795C273.42 8.50732 273.589 7.99707 273.589 7.36719C273.589 6.74219 273.42 6.23682 273.083 5.85107C272.747 5.46533 272.305 5.27246 271.758 5.27246C271.445 5.27246 271.133 5.35059 270.82 5.50684C270.513 5.66309 270.276 5.86328 270.11 6.10742V8.67822ZM276.98 9.27148C276.682 8.69531 276.533 8.06055 276.533 7.36719C276.533 6.67383 276.682 6.04395 276.98 5.47754C277.283 4.90625 277.727 4.44727 278.313 4.10059C278.904 3.74902 279.585 3.57324 280.356 3.57324C281.133 3.57324 281.816 3.74902 282.407 4.10059C282.998 4.44727 283.442 4.90625 283.74 5.47754C284.043 6.04395 284.194 6.67383 284.194 7.36719C284.194 8.06055 284.043 8.69531 283.74 9.27148C283.442 9.84277 282.998 10.3042 282.407 10.6558C281.816 11.0073 281.133 11.1831 280.356 11.1831C279.585 11.1831 278.904 11.0073 278.313 10.6558C277.727 10.3042 277.283 9.84277 276.98 9.27148ZM278.511 7.36719C278.511 7.96289 278.674 8.46582 279.001 8.87598C279.333 9.28125 279.785 9.48389 280.356 9.48389C280.933 9.48389 281.387 9.28125 281.719 8.87598C282.051 8.4707 282.217 7.96777 282.217 7.36719C282.217 6.77637 282.051 6.28076 281.719 5.88037C281.387 5.4751 280.933 5.27246 280.356 5.27246C279.785 5.27246 279.333 5.4751 279.001 5.88037C278.674 6.28076 278.511 6.77637 278.511 7.36719ZM285.623 8.89795V3.75635H287.527V8.15088C287.527 8.62939 287.642 8.97119 287.871 9.17627C288.101 9.38135 288.43 9.48389 288.86 9.48389C289.202 9.48389 289.517 9.40576 289.805 9.24951C290.093 9.09326 290.33 8.89795 290.515 8.66357V3.75635H292.419V11H290.515V10.0845C290.227 10.397 289.866 10.6582 289.431 10.8682C289.001 11.0781 288.513 11.1831 287.966 11.1831C287.19 11.1831 286.604 10.9829 286.208 10.5825C285.818 10.1821 285.623 9.62061 285.623 8.89795ZM293.496 5.41895V3.75635H294.697V1.77148H296.602V3.75635H298.074V5.41895H296.602V8.67822C296.602 8.9126 296.66 9.10547 296.777 9.25684C296.895 9.4082 297.056 9.48389 297.261 9.48389C297.397 9.48389 297.529 9.46191 297.656 9.41797C297.783 9.37402 297.874 9.32031 297.927 9.25684L298.33 10.7144C297.983 11.0269 297.454 11.1831 296.741 11.1831C296.077 11.1831 295.569 11.0146 295.217 10.6777C294.871 10.3359 294.697 9.83789 294.697 9.18359V5.41895H293.496ZM303.23 8.89795V3.75635H305.134V8.15088C305.134 8.62939 305.249 8.97119 305.479 9.17627C305.708 9.38135 306.038 9.48389 306.467 9.48389C306.809 9.48389 307.124 9.40576 307.412 9.24951C307.7 9.09326 307.937 8.89795 308.123 8.66357V3.75635H310.027V11H308.123V10.0845C307.834 10.397 307.473 10.6582 307.039 10.8682C306.609 11.0781 306.121 11.1831 305.574 11.1831C304.797 11.1831 304.211 10.9829 303.816 10.5825C303.425 10.1821 303.23 9.62061 303.23 8.89795ZM311.287 10.0552L312.114 8.67822C312.397 8.94678 312.776 9.18115 313.25 9.38135C313.728 9.58154 314.185 9.68164 314.619 9.68164C315.02 9.68164 315.322 9.61328 315.527 9.47656C315.732 9.33496 315.835 9.14697 315.835 8.9126C315.835 8.75635 315.754 8.62695 315.593 8.52441C315.437 8.42188 315.232 8.34131 314.978 8.28271C314.729 8.22412 314.451 8.16797 314.143 8.11426C313.84 8.05566 313.535 7.97754 313.228 7.87988C312.925 7.78223 312.646 7.65771 312.393 7.50635C312.144 7.35498 311.938 7.14014 311.777 6.86182C311.621 6.57861 311.543 6.24414 311.543 5.8584C311.543 5.21875 311.807 4.6792 312.334 4.23975C312.861 3.79541 313.586 3.57324 314.509 3.57324C315.623 3.57324 316.594 3.90283 317.424 4.56201L316.655 5.91699C316.426 5.67773 316.116 5.47754 315.725 5.31641C315.339 5.15527 314.934 5.07471 314.509 5.07471C314.167 5.07471 313.892 5.14062 313.682 5.27246C313.477 5.4043 313.374 5.57275 313.374 5.77783C313.374 5.90479 313.435 6.01221 313.557 6.1001C313.679 6.18311 313.84 6.24902 314.041 6.29785C314.246 6.3418 314.475 6.39307 314.729 6.45166C314.988 6.51025 315.251 6.56885 315.52 6.62744C315.793 6.68115 316.057 6.76904 316.311 6.89111C316.57 7.0083 316.799 7.14502 317 7.30127C317.205 7.45752 317.368 7.66992 317.49 7.93848C317.612 8.20703 317.673 8.51709 317.673 8.86865C317.673 9.55225 317.393 10.1089 316.831 10.5386C316.274 10.9683 315.505 11.1831 314.524 11.1831C313.894 11.1831 313.291 11.083 312.715 10.8828C312.144 10.6826 311.667 10.4067 311.287 10.0552ZM361.011 6.00488C361.011 4.99414 361.245 4.09326 361.714 3.30225C362.183 2.51123 362.822 1.90088 363.633 1.47119C364.443 1.0415 365.349 0.82666 366.35 0.82666C366.877 0.82666 367.366 0.89502 367.815 1.03174C368.269 1.16357 368.662 1.34912 368.994 1.58838C369.331 1.82275 369.622 2.0791 369.866 2.35742C370.115 2.63086 370.332 2.93604 370.518 3.27295L368.687 4.17383C368.472 3.75391 368.152 3.40723 367.727 3.13379C367.302 2.86035 366.843 2.72363 366.35 2.72363C365.437 2.72363 364.683 3.03369 364.087 3.65381C363.496 4.27393 363.201 5.05762 363.201 6.00488C363.201 6.95215 363.496 7.73828 364.087 8.36328C364.683 8.9834 365.437 9.29346 366.35 9.29346C366.843 9.29346 367.302 9.15674 367.727 8.8833C368.152 8.60498 368.472 8.25586 368.687 7.83594L370.518 8.72217C370.327 9.05908 370.11 9.3667 369.866 9.64502C369.626 9.91846 369.338 10.1748 369.001 10.4141C368.665 10.6533 368.269 10.8413 367.815 10.978C367.366 11.1147 366.877 11.1831 366.35 11.1831C365.603 11.1831 364.9 11.0562 364.241 10.8022C363.586 10.5483 363.02 10.1992 362.542 9.75488C362.068 9.30566 361.694 8.75879 361.421 8.11426C361.147 7.46484 361.011 6.76172 361.011 6.00488ZM371.726 9.27148C371.428 8.69531 371.279 8.06055 371.279 7.36719C371.279 6.67383 371.428 6.04395 371.726 5.47754C372.029 4.90625 372.473 4.44727 373.059 4.10059C373.65 3.74902 374.331 3.57324 375.103 3.57324C375.879 3.57324 376.562 3.74902 377.153 4.10059C377.744 4.44727 378.188 4.90625 378.486 5.47754C378.789 6.04395 378.94 6.67383 378.94 7.36719C378.94 8.06055 378.789 8.69531 378.486 9.27148C378.188 9.84277 377.744 10.3042 377.153 10.6558C376.562 11.0073 375.879 11.1831 375.103 11.1831C374.331 11.1831 373.65 11.0073 373.059 10.6558C372.473 10.3042 372.029 9.84277 371.726 9.27148ZM373.257 7.36719C373.257 7.96289 373.42 8.46582 373.748 8.87598C374.08 9.28125 374.531 9.48389 375.103 9.48389C375.679 9.48389 376.133 9.28125 376.465 8.87598C376.797 8.4707 376.963 7.96777 376.963 7.36719C376.963 6.77637 376.797 6.28076 376.465 5.88037C376.133 5.4751 375.679 5.27246 375.103 5.27246C374.531 5.27246 374.08 5.4751 373.748 5.88037C373.42 6.28076 373.257 6.77637 373.257 7.36719ZM380.369 11V3.75635H382.273V4.68652C382.537 4.37891 382.888 4.11768 383.328 3.90283C383.772 3.68311 384.265 3.57324 384.807 3.57324C385.588 3.57324 386.179 3.77832 386.58 4.18848C386.98 4.59375 387.18 5.16016 387.18 5.8877V11H385.261V6.62012C385.261 6.1416 385.144 5.79736 384.91 5.5874C384.68 5.37744 384.351 5.27246 383.921 5.27246C383.574 5.27246 383.259 5.35303 382.976 5.51416C382.693 5.67041 382.458 5.86816 382.273 6.10742V11H380.369ZM388.242 5.41895V3.75635H389.443V1.77148H391.348V3.75635H392.82V5.41895H391.348V8.67822C391.348 8.9126 391.406 9.10547 391.523 9.25684C391.641 9.4082 391.802 9.48389 392.007 9.48389C392.144 9.48389 392.275 9.46191 392.402 9.41797C392.529 9.37402 392.62 9.32031 392.673 9.25684L393.076 10.7144C392.729 11.0269 392.2 11.1831 391.487 11.1831C390.823 11.1831 390.315 11.0146 389.963 10.6777C389.617 10.3359 389.443 9.83789 389.443 9.18359V5.41895H388.242ZM393.662 7.36719C393.662 6.20996 393.96 5.28955 394.556 4.60596C395.156 3.91748 395.928 3.57324 396.87 3.57324C397.778 3.57324 398.523 3.94434 399.104 4.68652V3.75635H401.023V11H399.104V10.0698C398.513 10.812 397.769 11.1831 396.87 11.1831C395.933 11.1831 395.164 10.8438 394.563 10.165C393.962 9.48633 393.662 8.55371 393.662 7.36719ZM395.625 7.36719C395.625 7.99707 395.796 8.50732 396.138 8.89795C396.479 9.28857 396.924 9.48389 397.471 9.48389C397.788 9.48389 398.101 9.4082 398.408 9.25684C398.716 9.10059 398.948 8.90283 399.104 8.66357V6.10742C398.948 5.86816 398.716 5.67041 398.408 5.51416C398.101 5.35303 397.788 5.27246 397.471 5.27246C396.924 5.27246 396.479 5.46533 396.138 5.85107C395.796 6.23682 395.625 6.74219 395.625 7.36719ZM402.451 7.36719C402.451 6.25879 402.812 5.35059 403.535 4.64258C404.258 3.92969 405.176 3.57324 406.289 3.57324C407.559 3.57324 408.513 4.00781 409.153 4.87695L407.908 6.04883C407.561 5.53125 407.051 5.27246 406.377 5.27246C405.796 5.27246 405.322 5.46533 404.956 5.85107C404.595 6.23682 404.414 6.74219 404.414 7.36719C404.414 7.99707 404.595 8.50732 404.956 8.89795C405.322 9.28857 405.796 9.48389 406.377 9.48389C407.031 9.48389 407.542 9.22021 407.908 8.69287L409.153 9.85742C408.875 10.2383 408.499 10.5557 408.025 10.8096C407.551 11.0586 406.973 11.1831 406.289 11.1831C405.176 11.1831 404.258 10.8267 403.535 10.1138C402.812 9.396 402.451 8.48047 402.451 7.36719ZM409.585 5.41895V3.75635H410.786V1.77148H412.69V3.75635H414.163V5.41895H412.69V8.67822C412.69 8.9126 412.749 9.10547 412.866 9.25684C412.983 9.4082 413.145 9.48389 413.35 9.48389C413.486 9.48389 413.618 9.46191 413.745 9.41797C413.872 9.37402 413.962 9.32031 414.016 9.25684L414.419 10.7144C414.072 11.0269 413.542 11.1831 412.83 11.1831C412.166 11.1831 411.658 11.0146 411.306 10.6777C410.959 10.3359 410.786 9.83789 410.786 9.18359V5.41895H409.585ZM419.319 8.89795V3.75635H421.223V8.15088C421.223 8.62939 421.338 8.97119 421.567 9.17627C421.797 9.38135 422.126 9.48389 422.556 9.48389C422.898 9.48389 423.213 9.40576 423.501 9.24951C423.789 9.09326 424.026 8.89795 424.211 8.66357V3.75635H426.116V11H424.211V10.0845C423.923 10.397 423.562 10.6582 423.127 10.8682C422.698 11.0781 422.209 11.1831 421.663 11.1831C420.886 11.1831 420.3 10.9829 419.905 10.5825C419.514 10.1821 419.319 9.62061 419.319 8.89795ZM427.375 10.0552L428.203 8.67822C428.486 8.94678 428.865 9.18115 429.338 9.38135C429.817 9.58154 430.273 9.68164 430.708 9.68164C431.108 9.68164 431.411 9.61328 431.616 9.47656C431.821 9.33496 431.924 9.14697 431.924 8.9126C431.924 8.75635 431.843 8.62695 431.682 8.52441C431.526 8.42188 431.321 8.34131 431.067 8.28271C430.818 8.22412 430.54 8.16797 430.232 8.11426C429.929 8.05566 429.624 7.97754 429.316 7.87988C429.014 7.78223 428.735 7.65771 428.481 7.50635C428.232 7.35498 428.027 7.14014 427.866 6.86182C427.71 6.57861 427.632 6.24414 427.632 5.8584C427.632 5.21875 427.896 4.6792 428.423 4.23975C428.95 3.79541 429.675 3.57324 430.598 3.57324C431.711 3.57324 432.683 3.90283 433.513 4.56201L432.744 5.91699C432.515 5.67773 432.205 5.47754 431.814 5.31641C431.428 5.15527 431.023 5.07471 430.598 5.07471C430.256 5.07471 429.98 5.14062 429.771 5.27246C429.565 5.4043 429.463 5.57275 429.463 5.77783C429.463 5.90479 429.524 6.01221 429.646 6.1001C429.768 6.18311 429.929 6.24902 430.129 6.29785C430.334 6.3418 430.564 6.39307 430.818 6.45166C431.077 6.51025 431.34 6.56885 431.609 6.62744C431.882 6.68115 432.146 6.76904 432.4 6.89111C432.659 7.0083 432.888 7.14502 433.088 7.30127C433.293 7.45752 433.457 7.66992 433.579 7.93848C433.701 8.20703 433.762 8.51709 433.762 8.86865C433.762 9.55225 433.481 10.1089 432.92 10.5386C432.363 10.9683 431.594 11.1831 430.613 11.1831C429.983 11.1831 429.38 11.083 428.804 10.8828C428.232 10.6826 427.756 10.4067 427.375 10.0552Z" fill="#EFF9FF"/>
</svg>
