<svg width="90" height="14" viewBox="0 0 90 14" fill="none" xmlns="http://www.w3.org/2000/svg">
<path d="M1.1 11V6.845H3.995C5.9 6.845 7.01 5.495 7.01 3.92C7.01 2.345 5.915 0.994999 3.995 0.994999H0.245V11H1.1ZM3.905 6.065H1.1V1.775H3.905C5.24 1.775 6.11 2.66 6.11 3.92C6.11 5.165 5.24 6.065 3.905 6.065ZM9.56434 11V5.72C9.89434 5.09 10.8843 4.43 11.6193 4.43C11.7693 4.43 11.8743 4.43 12.0093 4.46V3.605C11.0043 3.605 10.1793 4.19 9.56434 5V3.755H8.78434V11H9.56434ZM13.9351 2.615C14.2651 2.615 14.5351 2.345 14.5351 2.015C14.5351 1.685 14.2651 1.43 13.9351 1.43C13.6201 1.43 13.3351 1.685 13.3351 2.015C13.3351 2.345 13.6201 2.615 13.9351 2.615ZM14.3251 11V3.755H13.5451V11H14.3251ZM19.5881 11L22.6481 3.755H21.7631L19.1531 10.085L16.5131 3.755H15.6431L18.7031 11H19.5881ZM30.1098 11V3.755H29.3148V4.925C28.7298 4.1 27.8298 3.575 26.7948 3.575C24.8748 3.575 23.5698 5.09 23.5698 7.385C23.5698 9.71 24.8748 11.18 26.7948 11.18C27.8748 11.18 28.8048 10.595 29.3148 9.845V11H30.1098ZM26.9298 10.475C25.3248 10.475 24.3948 9.14 24.3948 7.385C24.3948 5.63 25.3248 4.28 26.9298 4.28C27.9498 4.28 28.8948 4.91 29.3148 5.6V9.185C28.8948 9.875 27.9498 10.475 26.9298 10.475ZM35.6491 11.18C36.9091 11.18 37.6291 10.685 38.2141 9.935L37.6741 9.455C37.1491 10.175 36.4891 10.475 35.6941 10.475C33.9991 10.475 32.9641 9.11 32.9641 7.37C32.9641 5.63 33.9991 4.28 35.6941 4.28C36.4891 4.28 37.1491 4.565 37.6741 5.285L38.2141 4.805C37.6291 4.07 36.9091 3.575 35.6491 3.575C33.5191 3.575 32.1391 5.255 32.1391 7.37C32.1391 9.485 33.5191 11.18 35.6491 11.18ZM42.5362 13.94C44.1112 13.94 45.6262 13.085 45.6262 10.94V3.755H44.8462V9.2C44.3662 9.845 43.4212 10.4 42.4912 10.4C41.4412 10.4 40.7362 10.01 40.7362 8.615V3.755H39.9562V8.78C39.9562 10.415 40.7662 11.105 42.2362 11.105C43.2862 11.105 44.2612 10.52 44.8462 9.86V10.94C44.8462 12.395 43.9762 13.235 42.5362 13.235C41.6212 13.235 40.8712 12.92 40.3312 12.215L39.8662 12.845C40.5562 13.565 41.3362 13.94 42.5362 13.94ZM55.2386 11.18C57.1736 11.18 58.4786 9.68 58.4786 7.37C58.4786 5.045 57.1736 3.575 55.2386 3.575C54.1586 3.575 53.2286 4.16 52.7186 4.895V3.755H51.9386V13.76H52.7186V9.83C53.3036 10.655 54.2186 11.18 55.2386 11.18ZM55.1036 10.475C54.0986 10.475 53.1386 9.845 52.7186 9.155V5.57C53.1386 4.88 54.0986 4.28 55.1036 4.28C56.7236 4.28 57.6386 5.615 57.6386 7.37C57.6386 9.125 56.7236 10.475 55.1036 10.475ZM63.5094 11.18C65.6544 11.18 67.0044 9.485 67.0044 7.37C67.0044 5.255 65.6544 3.575 63.5094 3.575C61.3944 3.575 60.0444 5.255 60.0444 7.37C60.0444 9.485 61.3944 11.18 63.5094 11.18ZM63.5094 10.475C61.8294 10.475 60.8694 8.99 60.8694 7.37C60.8694 5.765 61.8294 4.28 63.5094 4.28C65.2194 4.28 66.1644 5.765 66.1644 7.37C66.1644 8.99 65.2194 10.475 63.5094 10.475ZM70.4287 11.18C71.0287 11.18 71.3737 11 71.6587 10.73L71.3587 10.13C71.1937 10.31 70.8937 10.475 70.5487 10.475C70.0387 10.475 69.7987 10.07 69.7987 9.485V0.994999H69.0187V9.605C69.0187 10.595 69.4837 11.18 70.4287 11.18ZM73.2466 2.615C73.5766 2.615 73.8466 2.345 73.8466 2.015C73.8466 1.685 73.5766 1.43 73.2466 1.43C72.9316 1.43 72.6466 1.685 72.6466 2.015C72.6466 2.345 72.9316 2.615 73.2466 2.615ZM73.6366 11V3.755H72.8566V11H73.6366ZM79.1696 11.18C80.4296 11.18 81.1496 10.685 81.7346 9.935L81.1946 9.455C80.6696 10.175 80.0096 10.475 79.2146 10.475C77.5196 10.475 76.4846 9.11 76.4846 7.37C76.4846 5.63 77.5196 4.28 79.2146 4.28C80.0096 4.28 80.6696 4.565 81.1946 5.285L81.7346 4.805C81.1496 4.07 80.4296 3.575 79.1696 3.575C77.0396 3.575 75.6596 5.255 75.6596 7.37C75.6596 9.485 77.0396 11.18 79.1696 11.18ZM86.0567 13.94C87.6317 13.94 89.1467 13.085 89.1467 10.94V3.755H88.3667V9.2C87.8867 9.845 86.9417 10.4 86.0117 10.4C84.9617 10.4 84.2567 10.01 84.2567 8.615V3.755H83.4767V8.78C83.4767 10.415 84.2867 11.105 85.7567 11.105C86.8067 11.105 87.7817 10.52 88.3667 9.86V10.94C88.3667 12.395 87.4967 13.235 86.0567 13.235C85.1417 13.235 84.3917 12.92 83.8517 12.215L83.3867 12.845C84.0767 13.565 84.8567 13.94 86.0567 13.94Z" fill="white"/>
</svg>
