<svg width="90" height="19" viewBox="0 0 90 19" fill="none" xmlns="http://www.w3.org/2000/svg">
<circle cx="9.30141" cy="9.30153" r="8.80141" fill="#4068D1" stroke="white"/>
<circle cx="32.8628" cy="9.30141" r="8.80141" fill="#FF3030" stroke="white"/>
<g clip-path="url(#clip0_1_374)">
<path d="M36.2405 7.36915C35.973 7.05112 35.479 6.92139 34.5356 6.92139H31.1113C30.1463 6.92139 29.644 7.05948 29.3775 7.39808C29.1176 7.72822 29.1176 8.21465 29.1176 8.88787V10.171C29.1176 11.4753 29.4259 12.1375 31.1113 12.1375H34.5357C35.3537 12.1375 35.807 12.023 36.1003 11.7424C36.4011 11.4545 36.5294 10.9846 36.5294 10.171V8.88787C36.5294 8.1779 36.5093 7.6886 36.2405 7.36915ZM33.876 9.70661L32.321 10.5193C32.2862 10.5375 32.2482 10.5465 32.2103 10.5465C32.1673 10.5465 32.1244 10.5349 32.0864 10.5119C32.0149 10.4686 31.9712 10.391 31.9712 10.3074V8.68723C31.9712 8.60374 32.0147 8.52627 32.0861 8.4829C32.1575 8.43953 32.2464 8.43657 32.3205 8.47506L33.8754 9.28251C33.9546 9.32359 34.0042 9.40526 34.0044 9.49437C34.0045 9.58355 33.955 9.66534 33.876 9.70661Z" fill="white"/>
</g>
<circle cx="57.1372" cy="9.30141" r="8.80141" fill="#56BBF3" stroke="white"/>
<circle cx="80.6986" cy="9.30141" r="8.80141" fill="#1A8BF3" stroke="white"/>
<g clip-path="url(#clip1_1_374)">
<path d="M10.3233 5.82503L9.36212 5.82349C8.28233 5.82349 7.58451 6.53943 7.58451 7.64753V8.48854H6.61814C6.53463 8.48854 6.46701 8.55624 6.46701 8.63975V9.85827C6.46701 9.94178 6.53471 10.0094 6.61814 10.0094H7.58451V13.0841C7.58451 13.1676 7.65214 13.2353 7.73564 13.2353H8.99649C9.07999 13.2353 9.14761 13.1676 9.14761 13.0841V10.0094H10.2775C10.361 10.0094 10.4287 9.94178 10.4287 9.85827L10.4291 8.63975C10.4291 8.59965 10.4132 8.56125 10.3849 8.53288C10.3566 8.5045 10.318 8.48854 10.2779 8.48854H9.14761V7.77561C9.14761 7.43294 9.22927 7.25899 9.67564 7.25899L10.3231 7.25876C10.4065 7.25876 10.4742 7.19106 10.4742 7.10763V5.97616C10.4742 5.89281 10.4066 5.82518 10.3233 5.82503Z" fill="white"/>
</g>
<g clip-path="url(#clip2_1_374)">
<path d="M61.4118 6.80242C61.1165 6.93196 60.8018 7.01782 60.4738 7.05951C60.8113 6.85801 61.0689 6.54135 61.19 6.15968C60.8753 6.34729 60.5279 6.47981 60.1576 6.55376C59.8588 6.23561 59.433 6.03857 58.9684 6.03857C58.0671 6.03857 57.3415 6.77016 57.3415 7.66701C57.3415 7.79606 57.3524 7.92014 57.3792 8.03826C56.0257 7.97225 54.8281 7.32356 54.0235 6.33538C53.8831 6.57907 53.8007 6.85801 53.8007 7.15828C53.8007 7.72211 54.091 8.2219 54.5238 8.51126C54.2623 8.5063 54.0057 8.43036 53.7883 8.31075C53.7883 8.31571 53.7883 8.32216 53.7883 8.32861C53.7883 9.11975 54.3526 9.77689 55.0926 9.92827C54.9601 9.9645 54.8157 9.98187 54.6658 9.98187C54.5616 9.98187 54.4563 9.97591 54.3576 9.95407C54.5685 10.5988 55.1671 11.0728 55.8788 11.0882C55.3249 11.5215 54.6216 11.7825 53.8603 11.7825C53.7267 11.7825 53.5987 11.7766 53.4706 11.7602C54.1918 12.2253 55.0465 12.4908 55.9681 12.4908C58.964 12.4908 60.6018 10.0092 60.6018 7.8581C60.6018 7.78613 60.5993 7.71665 60.5959 7.64766C60.919 7.41836 61.1905 7.13198 61.4118 6.80242Z" fill="white"/>
</g>
<g clip-path="url(#clip3_1_374)">
<path d="M79.0195 7.67822H77.5316C77.4655 7.67822 77.412 7.73175 77.412 7.79777V12.5778C77.412 12.6439 77.4655 12.6974 77.5316 12.6974H79.0195C79.0855 12.6974 79.139 12.6439 79.139 12.5778V7.79777C79.139 7.73175 79.0855 7.67822 79.0195 7.67822Z" fill="white"/>
<path d="M78.276 5.30225C77.7346 5.30225 77.2942 5.74222 77.2942 6.28301C77.2942 6.82405 77.7346 7.26419 78.276 7.26419C78.817 7.26419 79.2571 6.82403 79.2571 6.28301C79.2571 5.74222 78.817 5.30225 78.276 5.30225Z" fill="white"/>
<path d="M82.8041 7.55957C82.2065 7.55957 81.7648 7.81647 81.4968 8.10838V7.79792C81.4968 7.73191 81.4433 7.67837 81.3773 7.67837H79.9523C79.8863 7.67837 79.8328 7.73191 79.8328 7.79792V12.578C79.8328 12.644 79.8863 12.6975 79.9523 12.6975H81.437C81.503 12.6975 81.5566 12.644 81.5566 12.578V10.213C81.5566 9.41601 81.773 9.10552 82.3286 9.10552C82.9336 9.10552 82.9817 9.60326 82.9817 10.254V12.578C82.9817 12.644 83.0352 12.6976 83.1012 12.6976H84.5865C84.6525 12.6976 84.706 12.644 84.706 12.578V9.95606C84.706 8.77101 84.48 7.55957 82.8041 7.55957Z" fill="white"/>
</g>
<defs>
<clipPath id="clip0_1_374">
<rect width="7.41177" height="7.41177" fill="white" transform="translate(29.1176 5.82349)"/>
</clipPath>
<clipPath id="clip1_1_374">
<rect width="7.41177" height="7.41177" fill="white" transform="translate(4.76471 5.82349)"/>
</clipPath>
<clipPath id="clip2_1_374">
<rect width="7.94118" height="7.94118" fill="white" transform="translate(53.4706 5.29407)"/>
</clipPath>
<clipPath id="clip3_1_374">
<rect width="7.41177" height="7.41177" fill="white" transform="translate(77.2942 5.29407)"/>
</clipPath>
</defs>
</svg>
