<svg width="144" height="12" viewBox="0 0 144 12" fill="none" xmlns="http://www.w3.org/2000/svg">
<path d="M4.665 11V1.775H7.935V0.994999H0.525V1.775H3.795V11H4.665ZM9.0702 11V5.72C9.4002 5.09 10.3902 4.43 11.1252 4.43C11.2752 4.43 11.3802 4.43 11.5152 4.46V3.605C10.5102 3.605 9.6852 4.19 9.0702 5V3.755H8.2902V11H9.0702ZM16.2609 11.18C17.4609 11.18 18.3759 10.76 19.0959 10.01L18.6909 9.5C18.0759 10.16 17.2359 10.505 16.3209 10.505C14.6109 10.505 13.5609 9.2 13.4859 7.625H19.5459V7.415C19.5459 5.315 18.3309 3.575 16.1259 3.575C14.1159 3.575 12.6459 5.27 12.6459 7.37C12.6459 9.605 14.1459 11.18 16.2609 11.18ZM18.7509 7.01H13.4859C13.5459 5.75 14.4009 4.25 16.1109 4.25C17.9259 4.25 18.7359 5.78 18.7509 7.01ZM30.9667 11V5.78C30.9667 4.325 30.3217 3.575 28.9867 3.575C27.9667 3.575 26.9917 4.265 26.5867 4.94C26.4067 4.235 25.8067 3.575 24.6817 3.575C23.6317 3.575 22.6417 4.385 22.3417 4.85V3.755H21.5617V11H22.3417V5.525C22.7767 4.865 23.6467 4.28 24.4267 4.28C25.4467 4.28 25.8667 4.91 25.8667 5.93V11H26.6617V5.51C27.0667 4.85 27.9517 4.28 28.7317 4.28C29.7517 4.28 30.1867 4.91 30.1867 5.93V11H30.9667ZM35.5576 11.18C37.3726 11.18 38.2726 10.22 38.2726 9.05C38.2726 6.26 33.7126 7.37 33.7126 5.555C33.7126 4.805 34.3876 4.235 35.5126 4.235C36.4726 4.235 37.2526 4.625 37.6726 5.195L38.1076 4.64C37.5826 4.055 36.7576 3.575 35.5126 3.575C33.8776 3.575 32.9326 4.475 32.9326 5.585C32.9326 8.195 37.5076 7.07 37.5076 9.05C37.5076 9.89 36.7876 10.52 35.5726 10.52C34.5526 10.52 33.6976 10.04 33.2326 9.455L32.7676 10.025C33.4876 10.835 34.3876 11.18 35.5576 11.18ZM50.2992 11V3.755H49.5042V4.925C48.9192 4.1 48.0192 3.575 46.9842 3.575C45.0642 3.575 43.7592 5.09 43.7592 7.385C43.7592 9.71 45.0642 11.18 46.9842 11.18C48.0642 11.18 48.9942 10.595 49.5042 9.845V11H50.2992ZM47.1192 10.475C45.5142 10.475 44.5842 9.14 44.5842 7.385C44.5842 5.63 45.5142 4.28 47.1192 4.28C48.1392 4.28 49.0842 4.91 49.5042 5.6V9.185C49.0842 9.875 48.1392 10.475 47.1192 10.475ZM58.4036 11V5.93C58.4036 4.295 57.5936 3.575 56.1236 3.575C55.0736 3.575 54.0386 4.22 53.5136 4.85V3.755H52.7336V11H53.5136V5.525C53.9786 4.865 54.9386 4.28 55.8686 4.28C56.9186 4.28 57.6236 4.7 57.6236 6.095V11H58.4036ZM66.9691 11V0.994999H66.1741V4.925C65.6041 4.1 64.6891 3.575 63.6541 3.575C61.7341 3.575 60.4291 5.09 60.4291 7.385C60.4291 9.71 61.7341 11.18 63.6541 11.18C64.7341 11.18 65.6641 10.595 66.1741 9.845V11H66.9691ZM63.7891 10.475C62.1841 10.475 61.2541 9.14 61.2541 7.385C61.2541 5.63 62.1841 4.28 63.7891 4.28C64.8091 4.28 65.7541 4.895 66.1741 5.6V9.185C65.7541 9.875 64.8091 10.475 63.7891 10.475ZM76.3903 11.18C77.6503 11.18 78.3703 10.685 78.9553 9.935L78.4153 9.455C77.8903 10.175 77.2303 10.475 76.4353 10.475C74.7403 10.475 73.7053 9.11 73.7053 7.37C73.7053 5.63 74.7403 4.28 76.4353 4.28C77.2303 4.28 77.8903 4.565 78.4153 5.285L78.9553 4.805C78.3703 4.07 77.6503 3.575 76.3903 3.575C74.2603 3.575 72.8803 5.255 72.8803 7.37C72.8803 9.485 74.2603 11.18 76.3903 11.18ZM83.7574 11.18C85.9024 11.18 87.2524 9.485 87.2524 7.37C87.2524 5.255 85.9024 3.575 83.7574 3.575C81.6424 3.575 80.2924 5.255 80.2924 7.37C80.2924 9.485 81.6424 11.18 83.7574 11.18ZM83.7574 10.475C82.0774 10.475 81.1174 8.99 81.1174 7.37C81.1174 5.765 82.0774 4.28 83.7574 4.28C85.4674 4.28 86.4124 5.765 86.4124 7.37C86.4124 8.99 85.4674 10.475 83.7574 10.475ZM94.9368 11V5.93C94.9368 4.295 94.1268 3.575 92.6568 3.575C91.6068 3.575 90.5718 4.22 90.0468 4.85V3.755H89.2668V11H90.0468V5.525C90.5118 4.865 91.4718 4.28 92.4018 4.28C93.4518 4.28 94.1568 4.7 94.1568 6.095V11H94.9368ZM103.502 11V0.994999H102.707V4.925C102.137 4.1 101.222 3.575 100.187 3.575C98.2673 3.575 96.9623 5.09 96.9623 7.385C96.9623 9.71 98.2673 11.18 100.187 11.18C101.267 11.18 102.197 10.595 102.707 9.845V11H103.502ZM100.322 10.475C98.7173 10.475 97.7873 9.14 97.7873 7.385C97.7873 5.63 98.7173 4.28 100.322 4.28C101.342 4.28 102.287 4.895 102.707 5.6V9.185C102.287 9.875 101.342 10.475 100.322 10.475ZM106.327 2.615C106.657 2.615 106.927 2.345 106.927 2.015C106.927 1.685 106.657 1.43 106.327 1.43C106.012 1.43 105.727 1.685 105.727 2.015C105.727 2.345 106.012 2.615 106.327 2.615ZM106.717 11V3.755H105.937V11H106.717ZM110.72 11.18C111.32 11.18 111.665 11 111.95 10.73L111.65 10.13C111.485 10.31 111.185 10.475 110.84 10.475C110.33 10.475 110.09 10.07 110.09 9.485V4.445H111.56V3.755H110.09V1.775H109.295V3.755H108.095V4.445H109.295V9.605C109.295 10.595 109.76 11.18 110.72 11.18ZM119.411 11V3.755H118.616V4.925C118.031 4.1 117.131 3.575 116.096 3.575C114.176 3.575 112.871 5.09 112.871 7.385C112.871 9.71 114.176 11.18 116.096 11.18C117.176 11.18 118.106 10.595 118.616 9.845V11H119.411ZM116.231 10.475C114.626 10.475 113.696 9.14 113.696 7.385C113.696 5.63 114.626 4.28 116.231 4.28C117.251 4.28 118.196 4.91 118.616 5.6V9.185C118.196 9.875 117.251 10.475 116.231 10.475ZM123.42 11.18C124.02 11.18 124.365 11 124.65 10.73L124.35 10.13C124.185 10.31 123.885 10.475 123.54 10.475C123.03 10.475 122.79 10.07 122.79 9.485V4.445H124.26V3.755H122.79V1.775H121.995V3.755H120.795V4.445H121.995V9.605C121.995 10.595 122.46 11.18 123.42 11.18ZM126.366 2.615C126.696 2.615 126.966 2.345 126.966 2.015C126.966 1.685 126.696 1.43 126.366 1.43C126.051 1.43 125.766 1.685 125.766 2.015C125.766 2.345 126.051 2.615 126.366 2.615ZM126.756 11V3.755H125.976V11H126.756ZM132.244 11.18C134.389 11.18 135.739 9.485 135.739 7.37C135.739 5.255 134.389 3.575 132.244 3.575C130.129 3.575 128.779 5.255 128.779 7.37C128.779 9.485 130.129 11.18 132.244 11.18ZM132.244 10.475C130.564 10.475 129.604 8.99 129.604 7.37C129.604 5.765 130.564 4.28 132.244 4.28C133.954 4.28 134.899 5.765 134.899 7.37C134.899 8.99 133.954 10.475 132.244 10.475ZM143.423 11V5.93C143.423 4.295 142.613 3.575 141.143 3.575C140.093 3.575 139.058 4.22 138.533 4.85V3.755H137.753V11H138.533V5.525C138.998 4.865 139.958 4.28 140.888 4.28C141.938 4.28 142.643 4.7 142.643 6.095V11H143.423Z" fill="white"/>
</svg>
