<svg width="250" height="14" viewBox="0 0 250 14" fill="none" xmlns="http://www.w3.org/2000/svg">
<path d="M11.01 5.99C11.01 3.125 8.7 0.815 5.835 0.815C2.985 0.815 0.66 3.125 0.66 5.99C0.66 8.84 2.985 11.165 5.835 11.165C8.7 11.165 11.01 8.84 11.01 5.99ZM10.59 5.99C10.59 8.6 8.46 10.745 5.835 10.745C3.225 10.745 1.08 8.6 1.08 5.99C1.08 3.365 3.225 1.235 5.835 1.235C8.46 1.235 10.59 3.365 10.59 5.99ZM7.695 7.88C7.305 8.405 6.57 8.75 5.85 8.75C4.47 8.75 3.225 7.58 3.225 5.975C3.225 4.31 4.47 3.215 5.85 3.215C6.555 3.215 7.305 3.545 7.695 4.07L8.025 3.74C7.5 3.125 6.78 2.765 5.85 2.765C4.125 2.765 2.73 4.13 2.73 5.96C2.73 7.79 4.125 9.2 5.85 9.2C6.78 9.2 7.485 8.84 8.025 8.21L7.695 7.88ZM18.1816 11.18C18.7816 11.18 19.1266 11 19.4116 10.73L19.1116 10.13C18.9466 10.31 18.6466 10.475 18.3016 10.475C17.7916 10.475 17.5516 10.07 17.5516 9.485V0.994999H16.7716V9.605C16.7716 10.595 17.2366 11.18 18.1816 11.18ZM23.8195 11.18C25.0195 11.18 25.9345 10.76 26.6545 10.01L26.2495 9.5C25.6345 10.16 24.7945 10.505 23.8795 10.505C22.1695 10.505 21.1195 9.2 21.0445 7.625H27.1045V7.415C27.1045 5.315 25.8895 3.575 23.6845 3.575C21.6745 3.575 20.2045 5.27 20.2045 7.37C20.2045 9.605 21.7045 11.18 23.8195 11.18ZM26.3095 7.01H21.0445C21.1045 5.75 21.9595 4.25 23.6695 4.25C25.4845 4.25 26.2945 5.78 26.3095 7.01ZM34.1003 11V10.31H29.7053L34.0403 4.385V3.755H28.7453V4.445H33.0353L28.7453 10.355V11H34.1003ZM41.1315 11V10.31H36.7365L41.0715 4.385V3.755H35.7765V4.445H40.0665L35.7765 10.355V11H41.1315ZM45.7628 13.94C47.3378 13.94 48.8528 13.085 48.8528 10.94V3.755H48.0728V9.2C47.5928 9.845 46.6478 10.4 45.7178 10.4C44.6678 10.4 43.9628 10.01 43.9628 8.615V3.755H43.1828V8.78C43.1828 10.415 43.9928 11.105 45.4628 11.105C46.5128 11.105 47.4878 10.52 48.0728 9.86V10.94C48.0728 12.395 47.2028 13.235 45.7628 13.235C44.8478 13.235 44.0978 12.92 43.5578 12.215L43.0928 12.845C43.7828 13.565 44.5628 13.94 45.7628 13.94ZM56.9534 11V5.9C56.9534 4.265 56.1434 3.575 54.6734 3.575C53.6234 3.575 52.5884 4.22 52.0634 4.85V0.994999H51.2834V11H52.0634V5.525C52.5284 4.865 53.4884 4.28 54.4184 4.28C55.4684 4.28 56.1734 4.67 56.1734 6.065V11H56.9534ZM62.5939 11.18C63.7939 11.18 64.7089 10.76 65.4289 10.01L65.0239 9.5C64.4089 10.16 63.5689 10.505 62.6539 10.505C60.9439 10.505 59.8939 9.2 59.8189 7.625H65.8789V7.415C65.8789 5.315 64.6639 3.575 62.4589 3.575C60.4489 3.575 58.9789 5.27 58.9789 7.37C58.9789 9.605 60.4789 11.18 62.5939 11.18ZM65.0839 7.01H59.8189C59.8789 5.75 60.7339 4.25 62.4439 4.25C64.2589 4.25 65.0689 5.78 65.0839 7.01ZM74.0297 11V3.755H73.2347V4.925C72.6497 4.1 71.7497 3.575 70.7147 3.575C68.7947 3.575 67.4897 5.09 67.4897 7.385C67.4897 9.71 68.7947 11.18 70.7147 11.18C71.7947 11.18 72.7247 10.595 73.2347 9.845V11H74.0297ZM70.8497 10.475C69.2447 10.475 68.3147 9.14 68.3147 7.385C68.3147 5.63 69.2447 4.28 70.8497 4.28C71.8697 4.28 72.8147 4.91 73.2347 5.6V9.185C72.8147 9.875 71.8697 10.475 70.8497 10.475ZM77.874 11.18C78.474 11.18 78.819 11 79.104 10.73L78.804 10.13C78.639 10.31 78.339 10.475 77.994 10.475C77.484 10.475 77.244 10.07 77.244 9.485V0.994999H76.464V9.605C76.464 10.595 76.929 11.18 77.874 11.18ZM81.8769 11.18C82.4769 11.18 82.8219 11 83.1069 10.73L82.8069 10.13C82.6419 10.31 82.3419 10.475 81.9969 10.475C81.4869 10.475 81.2469 10.07 81.2469 9.485V4.445H82.7169V3.755H81.2469V1.775H80.4519V3.755H79.2519V4.445H80.4519V9.605C80.4519 10.595 80.9169 11.18 81.8769 11.18ZM90.1028 11V5.9C90.1028 4.265 89.2928 3.575 87.8228 3.575C86.7728 3.575 85.7378 4.22 85.2128 4.85V0.994999H84.4328V11H85.2128V5.525C85.6778 4.865 86.6378 4.28 87.5678 4.28C88.6178 4.28 89.3228 4.67 89.3228 6.065V11H90.1028ZM98.7584 11V10.22H93.4934C96.3884 7.88 98.7134 5.87 98.7134 3.665C98.7134 1.685 97.0334 0.844999 95.5634 0.844999C94.1534 0.844999 92.9384 1.43 92.2334 2.39L92.8184 2.93C93.3584 2.165 94.3184 1.625 95.5634 1.625C96.6584 1.625 97.8434 2.225 97.8434 3.665C97.8434 5.6 95.5634 7.55 92.1584 10.295V11H98.7584ZM104.624 11.18C107.294 11.18 108.314 8.375 108.314 6.005C108.314 3.62 107.294 0.844999 104.624 0.844999C101.924 0.844999 100.919 3.62 100.919 6.005C100.919 8.375 101.924 11.18 104.624 11.18ZM104.624 10.4C102.509 10.4 101.819 8.06 101.819 6.005C101.819 3.935 102.509 1.625 104.624 1.625C106.724 1.625 107.399 3.935 107.399 6.005C107.399 8.06 106.709 10.4 104.624 10.4ZM112.55 11V0.994999H111.77L109.565 3.32L110.09 3.875L111.695 2.165V11H112.55ZM117.854 11.165C120.614 11.165 121.679 8.57 121.679 6.005C121.679 3.32 120.704 0.83 118.004 0.83C115.874 0.83 114.644 2.39 114.644 4.025C114.644 6.155 116.069 7.19 117.869 7.19C119.234 7.19 120.389 6.215 120.809 5.525C120.809 5.675 120.809 5.84 120.809 5.99C120.809 8.09 120.059 10.385 117.854 10.385C116.759 10.385 116.159 9.92 115.664 9.275L115.154 9.89C115.754 10.64 116.549 11.165 117.854 11.165ZM118.019 6.425C116.594 6.425 115.514 5.645 115.514 4.01C115.514 2.93 116.324 1.61 118.034 1.61C119.924 1.61 120.629 3.35 120.749 4.715C120.179 5.72 119.114 6.425 118.019 6.425ZM123.657 11.135C124.017 11.135 124.317 10.835 124.317 10.475C124.317 10.13 124.017 9.83 123.657 9.83C123.297 9.83 122.982 10.13 122.982 10.475C122.982 10.835 123.297 11.135 123.657 11.135ZM138.65 11L134.555 0.994999H133.49L129.395 11H130.385L131.375 8.54H136.67L137.66 11H138.65ZM136.385 7.76H131.66L134.03 1.91L136.385 7.76ZM141.507 11.18C142.107 11.18 142.452 11 142.737 10.73L142.437 10.13C142.272 10.31 141.972 10.475 141.627 10.475C141.117 10.475 140.877 10.07 140.877 9.485V0.994999H140.097V9.605C140.097 10.595 140.562 11.18 141.507 11.18ZM145.345 11.18C145.945 11.18 146.29 11 146.575 10.73L146.275 10.13C146.11 10.31 145.81 10.475 145.465 10.475C144.955 10.475 144.715 10.07 144.715 9.485V0.994999H143.935V9.605C143.935 10.595 144.4 11.18 145.345 11.18ZM152.434 11V5.72C152.764 5.09 153.754 4.43 154.489 4.43C154.639 4.43 154.744 4.43 154.879 4.46V3.605C153.874 3.605 153.049 4.19 152.434 5V3.755H151.654V11H152.434ZM156.805 2.615C157.135 2.615 157.405 2.345 157.405 2.015C157.405 1.685 157.135 1.43 156.805 1.43C156.49 1.43 156.205 1.685 156.205 2.015C156.205 2.345 156.49 2.615 156.805 2.615ZM157.195 11V3.755H156.415V11H157.195ZM162.503 13.94C164.258 13.94 165.758 13.145 165.758 10.94V3.755H164.963V4.925C164.378 4.1 163.478 3.575 162.443 3.575C160.523 3.575 159.218 5.075 159.218 7.37C159.218 9.695 160.523 11.15 162.443 11.15C163.523 11.15 164.453 10.535 164.963 9.785V10.94C164.963 12.575 163.808 13.235 162.503 13.235C161.408 13.235 160.718 12.965 160.088 12.215L159.638 12.845C160.493 13.715 161.273 13.94 162.503 13.94ZM162.578 10.445C160.973 10.445 160.043 9.125 160.043 7.37C160.043 5.615 160.973 4.28 162.578 4.28C163.583 4.28 164.543 4.895 164.963 5.6V9.125C164.543 9.83 163.583 10.445 162.578 10.445ZM173.848 11V5.9C173.848 4.265 173.038 3.575 171.568 3.575C170.518 3.575 169.483 4.22 168.958 4.85V0.994999H168.178V11H168.958V5.525C169.423 4.865 170.383 4.28 171.313 4.28C172.363 4.28 173.068 4.67 173.068 6.065V11H173.848ZM177.853 11.18C178.453 11.18 178.798 11 179.083 10.73L178.783 10.13C178.618 10.31 178.318 10.475 177.973 10.475C177.463 10.475 177.223 10.07 177.223 9.485V4.445H178.693V3.755H177.223V1.775H176.428V3.755H175.228V4.445H176.428V9.605C176.428 10.595 176.893 11.18 177.853 11.18ZM182.569 11.18C184.384 11.18 185.284 10.22 185.284 9.05C185.284 6.26 180.724 7.37 180.724 5.555C180.724 4.805 181.399 4.235 182.524 4.235C183.484 4.235 184.264 4.625 184.684 5.195L185.119 4.64C184.594 4.055 183.769 3.575 182.524 3.575C180.889 3.575 179.944 4.475 179.944 5.585C179.944 8.195 184.519 7.07 184.519 9.05C184.519 9.89 183.799 10.52 182.584 10.52C181.564 10.52 180.709 10.04 180.244 9.455L179.779 10.025C180.499 10.835 181.399 11.18 182.569 11.18ZM191.956 11V5.72C192.286 5.09 193.276 4.43 194.011 4.43C194.161 4.43 194.266 4.43 194.401 4.46V3.605C193.396 3.605 192.571 4.19 191.956 5V3.755H191.176V11H191.956ZM199.147 11.18C200.347 11.18 201.262 10.76 201.982 10.01L201.577 9.5C200.962 10.16 200.122 10.505 199.207 10.505C197.497 10.505 196.447 9.2 196.372 7.625H202.432V7.415C202.432 5.315 201.217 3.575 199.012 3.575C197.002 3.575 195.532 5.27 195.532 7.37C195.532 9.605 197.032 11.18 199.147 11.18ZM201.637 7.01H196.372C196.432 5.75 197.287 4.25 198.997 4.25C200.812 4.25 201.622 5.78 201.637 7.01ZM206.607 11.18C208.422 11.18 209.322 10.22 209.322 9.05C209.322 6.26 204.762 7.37 204.762 5.555C204.762 4.805 205.437 4.235 206.562 4.235C207.522 4.235 208.302 4.625 208.722 5.195L209.157 4.64C208.632 4.055 207.807 3.575 206.562 3.575C204.927 3.575 203.982 4.475 203.982 5.585C203.982 8.195 208.557 7.07 208.557 9.05C208.557 9.89 207.837 10.52 206.622 10.52C205.602 10.52 204.747 10.04 204.282 9.455L203.817 10.025C204.537 10.835 205.437 11.18 206.607 11.18ZM214.542 11.18C215.742 11.18 216.657 10.76 217.377 10.01L216.972 9.5C216.357 10.16 215.517 10.505 214.602 10.505C212.892 10.505 211.842 9.2 211.767 7.625H217.827V7.415C217.827 5.315 216.612 3.575 214.407 3.575C212.397 3.575 210.927 5.27 210.927 7.37C210.927 9.605 212.427 11.18 214.542 11.18ZM217.032 7.01H211.767C211.827 5.75 212.682 4.25 214.392 4.25C216.207 4.25 217.017 5.78 217.032 7.01ZM220.623 11V5.72C220.953 5.09 221.943 4.43 222.678 4.43C222.828 4.43 222.933 4.43 223.068 4.46V3.605C222.063 3.605 221.238 4.19 220.623 5V3.755H219.843V11H220.623ZM227.439 11L230.499 3.755H229.614L227.004 10.085L224.364 3.755H223.494L226.554 11H227.439ZM235.035 11.18C236.235 11.18 237.15 10.76 237.87 10.01L237.465 9.5C236.85 10.16 236.01 10.505 235.095 10.505C233.385 10.505 232.335 9.2 232.26 7.625H238.32V7.415C238.32 5.315 237.105 3.575 234.9 3.575C232.89 3.575 231.42 5.27 231.42 7.37C231.42 9.605 232.92 11.18 235.035 11.18ZM237.525 7.01H232.26C232.32 5.75 233.175 4.25 234.885 4.25C236.7 4.25 237.51 5.78 237.525 7.01ZM246.471 11V0.994999H245.676V4.925C245.106 4.1 244.191 3.575 243.156 3.575C241.236 3.575 239.931 5.09 239.931 7.385C239.931 9.71 241.236 11.18 243.156 11.18C244.236 11.18 245.166 10.595 245.676 9.845V11H246.471ZM243.291 10.475C241.686 10.475 240.756 9.14 240.756 7.385C240.756 5.63 241.686 4.28 243.291 4.28C244.311 4.28 245.256 4.895 245.676 5.6V9.185C245.256 9.875 244.311 10.475 243.291 10.475ZM249.34 11.135C249.7 11.135 250 10.835 250 10.475C250 10.13 249.7 9.83 249.34 9.83C248.98 9.83 248.665 10.13 248.665 10.475C248.665 10.835 248.98 11.135 249.34 11.135Z" fill="white"/>
</svg>
